<svg width="19" height="18" viewBox="0 0 19 18" fill="none" xmlns="http://www.w3.org/2000/svg">
<g id="blog">
<g id="Group 1533209723">
<path id="Vector" d="M15.1463 3.66449C15.3711 3.90394 15.4949 4.2156 15.4949 4.5458C15.4949 4.88929 15.3605 5.21323 15.1174 5.4563L7.32599 13.2477C7.23681 13.337 7.12081 13.3945 6.9958 13.4114L15.1463 3.66449ZM15.1463 3.66449V3.66294L15.1174 3.63405L13.257 1.77422C13.2569 1.77417 13.2569 1.77411 13.2568 1.77405C13.1376 1.65395 12.9957 1.55869 12.8394 1.49378C12.6831 1.42884 12.5154 1.39557 12.3461 1.39588M15.1463 3.66449L3.47941 9.89498C3.49637 9.77 3.55384 9.65402 3.64301 9.56481L3.64303 9.5648L11.4351 1.77335C11.6782 1.53028 12.0021 1.3959 12.3461 1.39588M3.02896 13.2126C3.01696 13.3007 3.02549 13.3903 3.05388 13.4746C3.08226 13.5588 3.12974 13.6353 3.1926 13.6982C3.25545 13.761 3.33199 13.8085 3.41623 13.8369C3.50045 13.8653 3.5901 13.8738 3.67817 13.8618C3.67818 13.8618 3.67819 13.8618 3.67821 13.8618L6.99575 13.4114L3.57714 9.90825L3.4794 9.89499L3.02896 13.2126ZM3.02896 13.2126L3.12669 13.2259L3.02895 13.2126L3.02896 13.2126ZM12.3461 1.39588C12.3461 1.39588 12.3462 1.39588 12.3462 1.39588V1.49451L12.346 1.39588C12.3461 1.39588 12.3461 1.39588 12.3461 1.39588ZM14.3021 4.64008L14.3016 4.64055L12.8924 6.05099L10.8404 3.99958L12.2503 2.58911L12.2504 2.58899C12.2628 2.57649 12.2776 2.56658 12.2939 2.55982C12.3102 2.55305 12.3277 2.54957 12.3453 2.54957C12.3629 2.54957 12.3804 2.55305 12.3967 2.55982C12.413 2.56658 12.4277 2.57649 12.4402 2.58899L12.4403 2.58914L14.3023 4.44986L14.3027 4.45029C14.3153 4.46269 14.3253 4.47747 14.3321 4.49376C14.3389 4.51005 14.3424 4.52753 14.3424 4.54518C14.3424 4.56284 14.3389 4.58032 14.3321 4.59661C14.3257 4.61189 14.3155 4.62688 14.3021 4.64008ZM4.59585 10.2429L10.024 4.81477L12.0754 6.86618L6.64786 12.2943L4.27348 12.6167L4.59585 10.2429Z" fill="#718096" stroke="#718096" stroke-width="0.19726"/>
<line id="Line 1" x1="2.24561" y1="16.1027" x2="17.1497" y2="16.1027" stroke="#718096" stroke-width="1.18356"/>
</g>
</g>
</svg>
