<svg width="18" height="18" viewBox="0 0 18 18" fill="none" xmlns="http://www.w3.org/2000/svg">
<g id="edit">
<path id="Vector" d="M15.6025 4.52005L13.4801 2.39836C13.3545 2.27184 13.2051 2.17149 13.0405 2.10312C12.8759 2.03475 12.6993 1.99973 12.5211 2.00006C12.1585 2.00006 11.8176 2.14146 11.5614 2.39766L2.67355 11.2848C2.58922 11.3692 2.53488 11.4788 2.51885 11.597L2.00505 15.3812C1.99371 15.4645 2.00177 15.5492 2.02861 15.6289C2.05545 15.7085 2.10034 15.7809 2.15977 15.8404C2.21921 15.8998 2.29158 15.9447 2.37123 15.9715C2.45088 15.9984 2.53566 16.0064 2.61895 15.9951L6.40312 15.4813C6.52132 15.4653 6.631 15.4109 6.71532 15.3266L15.6025 6.43944C15.8587 6.18324 16.0001 5.84234 16.0001 5.48044C16.0001 5.11784 15.8587 4.77695 15.6025 4.52075V4.52005ZM6.07412 14.425L3.18174 14.8177L3.57444 11.926L9.8723 5.62814L12.3713 8.12713L6.07412 14.425ZM14.8311 5.66804L13.1441 7.35643L10.6444 4.85745L12.3321 3.16906C12.3567 3.14431 12.386 3.12468 12.4183 3.11129C12.4505 3.09789 12.4851 3.091 12.52 3.091C12.555 3.091 12.5895 3.09789 12.6218 3.11129C12.654 3.12468 12.6833 3.14431 12.708 3.16906L14.8318 5.29144C14.8567 5.31606 14.8765 5.34537 14.89 5.3777C14.9035 5.41002 14.9105 5.44471 14.9105 5.47974C14.9105 5.51478 14.9035 5.54946 14.89 5.58178C14.8765 5.61411 14.856 5.64343 14.8311 5.66804Z" fill="#4A5568"/>
</g>
</svg>
