<svg width="18" height="18" viewBox="0 0 18 18" fill="none" xmlns="http://www.w3.org/2000/svg">
<g id="blog">
<g id="Group 1533209723">
<path id="Vector" d="M14.4486 3.66449C14.6734 3.90394 14.7971 4.2156 14.7971 4.5458C14.7971 4.88929 14.6628 5.21323 14.4197 5.4563L6.62824 13.2477C6.53906 13.337 6.42306 13.3945 6.29804 13.4114L14.4486 3.66449ZM14.4486 3.66449V3.66294L14.4197 3.63405L12.5592 1.77422C12.5592 1.77417 12.5591 1.77411 12.5591 1.77405C12.4398 1.65395 12.2979 1.55869 12.1417 1.49378C11.9853 1.42884 11.8176 1.39557 11.6484 1.39588M14.4486 3.66449L2.78165 9.89498C2.79861 9.77 2.85608 9.65402 2.94526 9.56481L2.94527 9.5648L10.7373 1.77335C10.9804 1.53028 11.3043 1.3959 11.6484 1.39588M2.33121 13.2126C2.31921 13.3007 2.32774 13.3903 2.35612 13.4746C2.38451 13.5588 2.43198 13.6353 2.49484 13.6982C2.5577 13.761 2.63423 13.8085 2.71847 13.8369C2.8027 13.8653 2.89235 13.8738 2.98041 13.8618C2.98043 13.8618 2.98044 13.8618 2.98045 13.8618L6.29799 13.4114L2.87939 9.90825L2.78165 9.89499L2.33121 13.2126ZM2.33121 13.2126L2.42893 13.2259L2.3312 13.2126L2.33121 13.2126ZM11.6484 1.39588C11.6484 1.39588 11.6484 1.39588 11.6485 1.39588V1.49451L11.6483 1.39588C11.6483 1.39588 11.6483 1.39588 11.6484 1.39588ZM13.6044 4.64008L13.6039 4.64055L12.1946 6.05099L10.1426 3.99958L11.5525 2.58911L11.5526 2.58899C11.5651 2.57649 11.5799 2.56658 11.5962 2.55982C11.6124 2.55305 11.6299 2.54957 11.6475 2.54957C11.6652 2.54957 11.6826 2.55305 11.6989 2.55982C11.7152 2.56658 11.73 2.57649 11.7424 2.58899L11.7426 2.58914L13.6045 4.44986L13.605 4.45029C13.6175 4.46269 13.6275 4.47747 13.6343 4.49376C13.6411 4.51005 13.6446 4.52753 13.6446 4.54518C13.6446 4.56284 13.6411 4.58032 13.6343 4.59661C13.6279 4.61189 13.6177 4.62688 13.6044 4.64008ZM3.89809 10.2429L9.32624 4.81477L11.3776 6.86618L5.95011 12.2943L3.57573 12.6167L3.89809 10.2429Z" fill="#4A5568" stroke="#4A5568" stroke-width="0.19726"/>
<line id="Line 1" x1="1.54785" y1="16.1027" x2="16.4519" y2="16.1027" stroke="#4A5568" stroke-width="1.18356"/>
</g>
</g>
</svg>
