<svg width="19" height="18" viewBox="0 0 19 18" fill="none" xmlns="http://www.w3.org/2000/svg">
<g id="edit">
<path id="Vector" d="M16.3002 4.52005L14.1778 2.39836C14.0522 2.27184 13.9028 2.17149 13.7382 2.10312C13.5736 2.03475 13.397 1.99973 13.2188 2.00006C12.8562 2.00006 12.5153 2.14146 12.2591 2.39766L3.37124 11.2848C3.28692 11.3692 3.23258 11.4788 3.21654 11.597L2.70274 15.3812C2.6914 15.4645 2.69946 15.5492 2.7263 15.6289C2.75314 15.7085 2.79803 15.7809 2.85747 15.8404C2.9169 15.8998 2.98927 15.9447 3.06892 15.9715C3.14858 15.9984 3.23335 16.0064 3.31664 15.9951L7.10081 15.4813C7.21901 15.4653 7.32869 15.4109 7.41301 15.3266L16.3002 6.43944C16.5564 6.18324 16.6978 5.84234 16.6978 5.48044C16.6978 5.11784 16.5564 4.77695 16.3002 4.52075V4.52005ZM6.77182 14.425L3.87943 14.8177L4.27213 11.926L10.57 5.62814L13.069 8.12713L6.77182 14.425ZM15.5288 5.66804L13.8418 7.35643L11.3421 4.85745L13.0298 3.16906C13.0544 3.14431 13.0837 3.12468 13.116 3.11129C13.1482 3.09789 13.1828 3.091 13.2177 3.091C13.2526 3.091 13.2872 3.09789 13.3195 3.11129C13.3517 3.12468 13.381 3.14431 13.4057 3.16906L15.5295 5.29144C15.5544 5.31606 15.5742 5.34537 15.5877 5.3777C15.6012 5.41002 15.6082 5.44471 15.6082 5.47974C15.6082 5.51478 15.6012 5.54946 15.5877 5.58178C15.5742 5.61411 15.5537 5.64343 15.5288 5.66804Z" fill="#718096"/>
</g>
</svg>
