<svg width="18" height="18" viewBox="0 0 18 18" fill="none" xmlns="http://www.w3.org/2000/svg">
<g id="social/discord" clip-path="url(#clip0_271_1030)">
<path id="Vector" d="M16.6221 8.08922C16.2758 6.73347 15.7871 5.41815 15.1641 4.16522C15.1428 4.12574 15.1118 4.0923 15.0741 4.06802C14.4623 3.70408 13.8167 3.40026 13.1463 3.16082C11.9043 2.70902 11.3166 2.70002 11.2923 2.70002C11.2309 2.69943 11.1713 2.7212 11.1248 2.76128C11.0783 2.80136 11.0479 2.857 11.0394 2.91782L10.9638 3.44522C9.85768 3.3355 8.74345 3.3355 7.63737 3.44522L7.56177 2.91782C7.55307 2.85708 7.52265 2.80155 7.47615 2.76151C7.42966 2.72146 7.37023 2.69962 7.30887 2.70002C7.28457 2.70002 6.69687 2.70002 5.45487 3.15722C4.78617 3.39752 4.14177 3.70352 3.53247 4.06802C3.49474 4.0923 3.46377 4.12574 3.44247 4.16522C2.81942 5.41813 2.3307 6.73346 1.98447 8.08922C1.33017 10.7316 1.20237 12.0537 1.20237 12.1086C1.1994 12.1427 1.20338 12.177 1.21405 12.2095C1.22473 12.242 1.24188 12.272 1.26447 12.2976C1.91521 12.9858 2.69909 13.5346 3.56847 13.9104C4.36767 14.2506 5.21007 14.481 6.07227 14.5962C6.12059 14.6008 6.1692 14.5913 6.21229 14.5689C6.25538 14.5466 6.29113 14.5123 6.31527 14.4702L6.99927 13.2993C7.76003 13.4291 8.53064 13.4923 9.30237 13.4883C10.0742 13.4911 10.8448 13.427 11.6055 13.2966L12.2895 14.4693C12.3114 14.5076 12.3429 14.5395 12.381 14.5617C12.419 14.584 12.4623 14.5959 12.5064 14.5962H12.5316C13.393 14.4831 14.2352 14.2542 15.0354 13.9158C15.9045 13.5399 16.688 12.9912 17.3385 12.303C17.3611 12.2774 17.3783 12.2474 17.389 12.2149C17.3996 12.1824 17.4036 12.1481 17.4006 12.114C17.4015 12.0537 17.2818 10.7316 16.6212 8.08832L16.6221 8.08922ZM14.8428 13.4442C14.1363 13.7367 13.3974 13.9455 12.6414 14.0652L12.1248 13.1805C12.7179 13.023 13.95 12.6153 14.8878 11.763C14.9381 11.7179 14.9685 11.6546 14.9722 11.5871C14.9759 11.5196 14.9527 11.4534 14.9076 11.403C14.8625 11.3527 14.7992 11.3223 14.7317 11.3186C14.6642 11.3149 14.5979 11.3381 14.5476 11.3832C13.4271 12.4074 11.7603 12.744 11.6892 12.7584H11.6802C10.8972 12.9105 10.1007 12.9852 9.30327 12.9816C8.50582 12.9873 7.70972 12.915 6.92637 12.7656H6.91737C6.89937 12.7656 5.20287 12.4326 4.05717 11.3904C4.03223 11.3681 4.00314 11.3509 3.97155 11.3398C3.93996 11.3287 3.9065 11.3239 3.87307 11.3258C3.83964 11.3276 3.8069 11.336 3.77672 11.3505C3.74654 11.365 3.71951 11.3853 3.69717 11.4102C3.67483 11.4352 3.65762 11.4643 3.64653 11.4958C3.63543 11.5274 3.63067 11.5609 3.63251 11.5943C3.63435 11.6278 3.64275 11.6605 3.65724 11.6907C3.67174 11.7209 3.69203 11.7479 3.71697 11.7702C4.65477 12.6234 5.88777 13.0356 6.47997 13.1877L5.96337 14.0733C5.20773 13.9539 4.46903 13.7448 3.76287 13.4505C2.9986 13.1138 2.30506 12.6352 1.71897 12.0402C1.76037 11.6712 1.93137 10.386 2.47857 8.21252C2.81152 6.91878 3.27437 5.66199 3.86007 4.46132C4.42552 4.13522 5.01849 3.85936 5.63217 3.63692C6.10618 3.45463 6.59693 3.31928 7.09737 3.23282L7.14237 3.53522C6.63567 3.66122 5.38917 4.02392 4.40187 4.74122C4.34768 4.78085 4.31146 4.84037 4.30116 4.9067C4.29087 4.97304 4.30734 5.04074 4.34697 5.09492C4.38659 5.14911 4.44612 5.18533 4.51245 5.19563C4.57878 5.20592 4.64648 5.18945 4.70067 5.14982C5.80767 4.34522 7.33317 4.00862 7.46367 3.97982H7.46727C8.07622 3.9069 8.68907 3.87144 9.30237 3.87362C9.91617 3.87092 10.5291 3.90602 11.1384 3.97982C11.2536 4.00322 12.7836 4.33802 13.905 5.14982C13.9318 5.16944 13.9622 5.18359 13.9945 5.19145C14.0268 5.1993 14.0603 5.20073 14.0932 5.19563C14.126 5.19053 14.1576 5.17901 14.1859 5.16173C14.2143 5.14446 14.239 5.12175 14.2587 5.09492C14.2783 5.06809 14.2924 5.03766 14.3003 5.00537C14.3081 4.97307 14.3096 4.93955 14.3045 4.9067C14.2994 4.87386 14.2879 4.84234 14.2706 4.81395C14.2533 4.78556 14.2306 4.76084 14.2038 4.74122C13.2165 4.02392 11.9754 3.66302 11.4642 3.53522L11.5083 3.23282C12.0083 3.31964 12.4988 3.45498 12.9726 3.63692C13.5855 3.85922 14.1786 4.13552 14.7438 4.46132C15.3335 5.66144 15.8 6.91827 16.1361 8.21252C16.6788 10.386 16.8498 11.6712 16.8957 12.0402C16.3061 12.634 15.6101 13.1104 14.8428 13.4442ZM6.92637 7.78682C6.14697 7.78682 5.51337 8.49512 5.51337 9.36632C5.51337 10.2366 6.14607 10.944 6.92637 10.944C7.70757 10.944 8.33937 10.2366 8.33937 9.36632C8.33937 8.49512 7.70487 7.78682 6.92637 7.78682ZM6.92637 10.4445C6.42057 10.4445 6.01917 9.96392 6.01917 9.37262C6.01917 8.78132 6.42507 8.29892 6.92637 8.29892C7.42767 8.29892 7.83267 8.78042 7.83267 9.37262C7.83267 9.96482 7.42677 10.4382 6.92637 10.4382V10.4445ZM10.2654 9.36632C10.2654 8.49512 10.899 7.78682 11.6784 7.78682C12.4569 7.78682 13.0914 8.49512 13.0914 9.36632C13.0914 10.2366 12.4569 10.944 11.6784 10.944C10.8981 10.944 10.2654 10.2366 10.2654 9.36632ZM10.7712 9.37262C10.7712 9.96392 11.1717 10.4436 11.6775 10.4436V10.44C12.1788 10.44 12.5847 9.96662 12.5847 9.37442C12.5847 8.78222 12.1779 8.30072 11.6775 8.30072C11.178 8.30072 10.7712 8.78312 10.7712 9.37442V9.37262Z" stroke="#4A5568" stroke-width="0.72"/>
</g>
<defs>
<clipPath id="clip0_271_1030">
<rect width="18" height="18" fill="white" transform="translate(0.302368)"/>
</clipPath>
</defs>
</svg>
