<svg width="18" height="18" viewBox="0 0 18 18" fill="none" xmlns="http://www.w3.org/2000/svg">
<g id="social/discord">
<path id="Vector" d="M16.3198 8.08922C15.9736 6.73347 15.4848 5.41815 14.8618 4.16522C14.8405 4.12574 14.8096 4.0923 14.7718 4.06802C14.16 3.70408 13.5144 3.40026 12.844 3.16082C11.602 2.70902 11.0143 2.70002 10.99 2.70002C10.9286 2.69943 10.8691 2.7212 10.8225 2.76128C10.776 2.80136 10.7456 2.857 10.7371 2.91782L10.6615 3.44522C9.55544 3.3355 8.44121 3.3355 7.33512 3.44522L7.25952 2.91782C7.25082 2.85708 7.2204 2.80155 7.17391 2.76151C7.12741 2.72146 7.06798 2.69962 7.00662 2.70002C6.98232 2.70002 6.39462 2.70002 5.15262 3.15722C4.48392 3.39752 3.83952 3.70352 3.23022 4.06802C3.19249 4.0923 3.16153 4.12574 3.14022 4.16522C2.51717 5.41813 2.02845 6.73346 1.68222 8.08922C1.02792 10.7316 0.900122 12.0537 0.900122 12.1086C0.897158 12.1427 0.901133 12.177 0.911807 12.2095C0.922481 12.242 0.939631 12.272 0.962222 12.2976C1.61296 12.9858 2.39684 13.5346 3.26622 13.9104C4.06542 14.2506 4.90782 14.481 5.77002 14.5962C5.81835 14.6008 5.86695 14.5913 5.91004 14.5689C5.95313 14.5466 5.98888 14.5123 6.01302 14.4702L6.69702 13.2993C7.45778 13.4291 8.22839 13.4923 9.00012 13.4883C9.77192 13.4911 10.5425 13.427 11.3032 13.2966L11.9872 14.4693C12.0091 14.5076 12.0407 14.5395 12.0787 14.5617C12.1168 14.584 12.16 14.5959 12.2041 14.5962H12.2293C13.0907 14.4831 13.9329 14.2542 14.7331 13.9158C15.6022 13.5399 16.3858 12.9912 17.0362 12.303C17.0589 12.2774 17.076 12.2474 17.0867 12.2149C17.0974 12.1824 17.1013 12.1481 17.0983 12.114C17.0992 12.0537 16.9795 10.7316 16.3189 8.08832L16.3198 8.08922ZM14.5405 13.4442C13.834 13.7367 13.0951 13.9455 12.3391 14.0652L11.8225 13.1805C12.4156 13.023 13.6477 12.6153 14.5855 11.763C14.6359 11.7179 14.6663 11.6546 14.67 11.5871C14.6737 11.5196 14.6504 11.4534 14.6053 11.403C14.5602 11.3527 14.4969 11.3223 14.4294 11.3186C14.3619 11.3149 14.2957 11.3381 14.2453 11.3832C13.1248 12.4074 11.458 12.744 11.3869 12.7584H11.3779C10.5949 12.9105 9.79842 12.9852 9.00102 12.9816C8.20357 12.9873 7.40748 12.915 6.62412 12.7656H6.61512C6.59712 12.7656 4.90062 12.4326 3.75492 11.3904C3.72998 11.3681 3.70089 11.3509 3.6693 11.3398C3.63771 11.3287 3.60425 11.3239 3.57082 11.3258C3.53739 11.3276 3.50465 11.336 3.47447 11.3505C3.44429 11.365 3.41726 11.3853 3.39492 11.4102C3.37258 11.4352 3.35538 11.4643 3.34428 11.4958C3.33319 11.5274 3.32842 11.5609 3.33026 11.5943C3.3321 11.6278 3.34051 11.6605 3.355 11.6907C3.36949 11.7209 3.38978 11.7479 3.41472 11.7702C4.35252 12.6234 5.58552 13.0356 6.17772 13.1877L5.66112 14.0733C4.90549 13.9539 4.16678 13.7448 3.46062 13.4505C2.69635 13.1138 2.00281 12.6352 1.41672 12.0402C1.45812 11.6712 1.62912 10.386 2.17632 8.21252C2.50927 6.91878 2.97212 5.66199 3.55782 4.46132C4.12327 4.13522 4.71624 3.85936 5.32992 3.63692C5.80393 3.45463 6.29468 3.31928 6.79512 3.23282L6.84012 3.53522C6.33342 3.66122 5.08692 4.02392 4.09962 4.74122C4.04544 4.78085 4.00921 4.84037 3.99892 4.9067C3.98862 4.97304 4.0051 5.04074 4.04472 5.09492C4.08435 5.14911 4.14387 5.18533 4.2102 5.19563C4.27653 5.20592 4.34424 5.18945 4.39842 5.14982C5.50542 4.34522 7.03092 4.00862 7.16142 3.97982H7.16502C7.77397 3.9069 8.38683 3.87144 9.00012 3.87362C9.61392 3.87092 10.2268 3.90602 10.8361 3.97982C10.9513 4.00322 12.4813 4.33802 13.6027 5.14982C13.6296 5.16944 13.66 5.18359 13.6923 5.19145C13.7246 5.1993 13.7581 5.20073 13.7909 5.19563C13.8238 5.19053 13.8553 5.17901 13.8837 5.16173C13.9121 5.14446 13.9368 5.12175 13.9564 5.09492C13.976 5.06809 13.9902 5.03766 13.998 5.00537C14.0059 4.97307 14.0073 4.93955 14.0022 4.9067C13.9971 4.87386 13.9856 4.84234 13.9683 4.81395C13.9511 4.78556 13.9284 4.76084 13.9015 4.74122C12.9142 4.02392 11.6731 3.66302 11.1619 3.53522L11.206 3.23282C11.7061 3.31964 12.1965 3.45498 12.6703 3.63692C13.2832 3.85922 13.8763 4.13552 14.4415 4.46132C15.0312 5.66144 15.4977 6.91827 15.8338 8.21252C16.3765 10.386 16.5475 11.6712 16.5934 12.0402C16.0039 12.634 15.3078 13.1104 14.5405 13.4442ZM6.62412 7.78682C5.84472 7.78682 5.21112 8.49512 5.21112 9.36632C5.21112 10.2366 5.84382 10.944 6.62412 10.944C7.40532 10.944 8.03712 10.2366 8.03712 9.36632C8.03712 8.49512 7.40262 7.78682 6.62412 7.78682ZM6.62412 10.4445C6.11832 10.4445 5.71692 9.96392 5.71692 9.37262C5.71692 8.78132 6.12282 8.29892 6.62412 8.29892C7.12542 8.29892 7.53042 8.78042 7.53042 9.37262C7.53042 9.96482 7.12452 10.4382 6.62412 10.4382V10.4445ZM9.96312 9.36632C9.96312 8.49512 10.5967 7.78682 11.3761 7.78682C12.1546 7.78682 12.7891 8.49512 12.7891 9.36632C12.7891 10.2366 12.1546 10.944 11.3761 10.944C10.5958 10.944 9.96312 10.2366 9.96312 9.36632ZM10.4689 9.37262C10.4689 9.96392 10.8694 10.4436 11.3752 10.4436V10.44C11.8765 10.44 12.2824 9.96662 12.2824 9.37442C12.2824 8.78222 11.8756 8.30072 11.3752 8.30072C10.8757 8.30072 10.4689 8.78312 10.4689 9.37442V9.37262Z" stroke="#718096" stroke-width="0.72"/>
</g>
</svg>
