<svg width="180" height="40" viewBox="0 0 180 40" fill="none" xmlns="http://www.w3.org/2000/svg">
<path d="M91.9201 17.2828V27.7178H89.6157V17.2828H91.9201ZM91.9201 13.066V15.4823H89.6157V13.066H91.9201Z" fill="black"/>
<path d="M77.9692 27.7178H76.0581V13.066H78.123V18.2721C78.577 17.6571 79.1262 17.1958 79.7705 16.8882C80.4149 16.566 81.1324 16.4049 81.9232 16.4049C82.6994 16.4049 83.4316 16.5587 84.1199 16.8662C84.8082 17.1738 85.4086 17.5912 85.9212 18.1184C86.4337 18.6456 86.8365 19.2679 87.1294 19.9855C87.4369 20.6885 87.5907 21.4426 87.5907 22.2481C87.5907 23.0535 87.4442 23.8077 87.1513 24.5107C86.8584 25.2136 86.4557 25.8213 85.9432 26.3339C85.4452 26.8465 84.8448 27.2565 84.1419 27.564C83.4536 27.8569 82.714 28.0034 81.9232 28.0034C81.0299 28.0034 80.2611 27.8569 79.6167 27.564C78.987 27.2711 78.4379 26.8025 77.9692 26.1582V27.7178ZM81.8134 18.2721C81.2862 18.2721 80.7956 18.3746 80.3416 18.5797C79.8877 18.7847 79.4849 19.0702 79.1335 19.4364C78.7967 19.7878 78.5331 20.2052 78.3427 20.6885C78.1523 21.1717 78.0571 21.6916 78.0571 22.2481C78.0571 22.7899 78.1523 23.3025 78.3427 23.7858C78.5477 24.2544 78.8186 24.6644 79.1554 25.0159C79.4923 25.3674 79.8877 25.6456 80.3416 25.8506C80.7956 26.041 81.2789 26.1362 81.7914 26.1362C82.304 26.1362 82.7873 26.0337 83.2413 25.8287C83.6952 25.6236 84.0906 25.3454 84.4275 24.9939C84.7643 24.6278 85.0279 24.2105 85.2183 23.7418C85.4233 23.2586 85.5258 22.7533 85.5258 22.2261C85.5258 21.6843 85.4233 21.1717 85.2183 20.6885C85.0279 20.2052 84.7643 19.7878 84.4275 19.4364C84.0906 19.0702 83.6952 18.7847 83.2413 18.5797C82.8019 18.3746 82.326 18.2721 81.8134 18.2721Z" fill="black"/>
<path d="M73.4201 27.718H71.531V26.0046C71.326 26.3268 71.1429 26.5684 70.9818 26.7295C70.8354 26.8906 70.623 27.0517 70.3448 27.2128C69.5101 27.74 68.5289 28.0036 67.4013 28.0036C66.6105 28.0036 65.8709 27.8571 65.1826 27.5642C64.4943 27.2714 63.9012 26.8686 63.4033 26.3561C62.9054 25.8435 62.51 25.2431 62.2171 24.5548C61.9389 23.8519 61.7997 23.0904 61.7997 22.2703C61.7997 21.4355 61.9462 20.6667 62.2391 19.9638C62.532 19.2462 62.9347 18.6311 63.4472 18.1186C63.9598 17.5914 64.5602 17.1813 65.2485 16.8884C65.9515 16.5955 66.713 16.4491 67.5331 16.4491C68.3678 16.4491 69.1513 16.6248 69.8835 16.9763C70.6157 17.3131 71.1649 17.7598 71.531 18.3163V16.7347H73.4201V27.718ZM67.599 26.1364C68.1262 26.1364 68.6167 26.0339 69.0707 25.8289C69.5247 25.6239 69.9201 25.3456 70.2569 24.9941C70.6084 24.6427 70.8793 24.2326 71.0697 23.764C71.2747 23.2954 71.3772 22.7975 71.3772 22.2703C71.3772 21.7284 71.2747 21.2159 71.0697 20.7326C70.8793 20.2493 70.6157 19.832 70.2789 19.4805C69.9421 19.1144 69.5393 18.8288 69.0707 18.6238C68.6167 18.4188 68.1262 18.3163 67.599 18.3163C67.0718 18.3163 66.5812 18.4188 66.1272 18.6238C65.6732 18.8288 65.2778 19.1071 64.941 19.4585C64.6042 19.81 64.3332 20.2274 64.1282 20.7106C63.9378 21.1939 63.8426 21.7065 63.8426 22.2483C63.8426 22.7755 63.9378 23.2807 64.1282 23.764C64.3332 24.2326 64.6042 24.6427 64.941 24.9941C65.2778 25.3456 65.6732 25.6239 66.1272 25.8289C66.5958 26.0339 67.0864 26.1364 67.599 26.1364Z" fill="black"/>
<path d="M58.7733 27.7178H56.6205V15.043H52.9989V13.066H62.3729V15.043H58.7733V27.7178Z" fill="black"/>
<path fill-rule="evenodd" clip-rule="evenodd" d="M92.3385 16.8642V28.136H89.1972V16.8642H92.3385ZM92.3385 12.6473V15.9005H89.1972V12.6473H92.3385ZM91.92 17.2826H89.6156V27.7175H91.92V17.2826ZM91.92 13.0658H89.6156V15.4821H91.92V13.0658Z" fill="black"/>
<path fill-rule="evenodd" clip-rule="evenodd" d="M78.3877 28.136H75.6398V12.6473H78.5415V17.1997C78.8587 16.9233 79.2072 16.6936 79.5869 16.512C80.294 16.1592 81.0754 15.9863 81.9233 15.9863C82.7565 15.9863 83.5471 16.1517 84.2907 16.484C85.0262 16.8126 85.6708 17.2602 86.2213 17.8264C86.7721 18.393 87.203 19.0598 87.5149 19.8223C87.8453 20.5794 88.0092 21.3894 88.0092 22.2478C88.0092 23.1053 87.853 23.9145 87.5376 24.6713C87.2252 25.4212 86.7934 26.0747 86.2412 26.6274C85.7033 27.1806 85.0576 27.6199 84.3097 27.9471L84.3077 27.948L84.3058 27.9488C83.5628 28.265 82.7672 28.4215 81.9233 28.4215C80.9854 28.4215 80.1547 28.2679 79.4437 27.9447L79.4404 27.9432C79.0601 27.7663 78.7094 27.5333 78.3877 27.247V28.136ZM78.3877 26.664C78.2418 26.5095 78.1023 26.3408 77.9693 26.1579V27.7175H76.0582V13.0658H78.1231V18.2719C78.2546 18.0937 78.3941 17.9285 78.5415 17.7761C78.9032 17.4025 79.3129 17.1064 79.7706 16.888C80.415 16.5658 81.1325 16.4047 81.9233 16.4047C82.6995 16.4047 83.4317 16.5585 84.12 16.866C84.8083 17.1735 85.4087 17.5909 85.9213 18.1181C86.4338 18.6453 86.8366 19.2677 87.1294 19.9853C87.437 20.6882 87.5907 21.4424 87.5907 22.2478C87.5907 23.0533 87.4443 23.8075 87.1514 24.5104C86.8585 25.2133 86.4558 25.8211 85.9432 26.3336C85.4453 26.8462 84.8449 27.2562 84.142 27.5638C83.4537 27.8567 82.7141 28.0031 81.9233 28.0031C81.03 28.0031 80.2612 27.8567 79.6168 27.5638C79.1658 27.354 78.7561 27.0541 78.3877 26.664ZM84.8319 23.5811L84.8332 23.5782C85.0162 23.1468 85.1075 22.6972 85.1075 22.2259C85.1075 21.7383 85.0155 21.2815 84.8332 20.8516L84.831 20.8466L84.829 20.8416C84.6573 20.4055 84.4222 20.0352 84.1255 19.7256L84.1225 19.7225L84.1196 19.7194C83.821 19.3948 83.4718 19.1426 83.0691 18.9607L83.0668 18.9597L83.0644 18.9586C82.6836 18.7809 82.2685 18.6903 81.8135 18.6903C81.3422 18.6903 80.9107 18.7816 80.5139 18.9607C80.1096 19.1434 79.7506 19.3975 79.4354 19.7259C79.1388 20.0354 78.9038 20.4056 78.7321 20.8416C78.5623 21.2726 78.4756 21.7401 78.4756 22.2478C78.4756 22.7368 78.5608 23.1947 78.7292 23.625C78.9152 24.0478 79.1582 24.4137 79.4576 24.7261C79.7553 25.0367 80.1046 25.2834 80.5087 25.4667C80.9079 25.6333 81.3342 25.7175 81.7915 25.7175C82.2465 25.7175 82.6709 25.6269 83.0691 25.4471C83.4742 25.2642 83.8242 25.0177 84.1225 24.7072C84.4235 24.3793 84.6594 24.0058 84.8307 23.5841L84.8319 23.5811ZM84.4275 24.9937C84.0907 25.3451 83.6953 25.6234 83.2413 25.8284C82.7874 26.0334 82.3041 26.1359 81.7915 26.1359C81.279 26.1359 80.7957 26.0408 80.3417 25.8504C79.8878 25.6454 79.4924 25.3671 79.1555 25.0156C78.8187 24.6642 78.5478 24.2541 78.3428 23.7855C78.1524 23.3022 78.0572 22.7897 78.0572 22.2478C78.0572 21.6913 78.1524 21.1715 78.3428 20.6882C78.5331 20.2049 78.7967 19.7876 79.1336 19.4361C79.485 19.07 79.8878 18.7844 80.3417 18.5794C80.7957 18.3744 81.2863 18.2719 81.8135 18.2719C82.3261 18.2719 82.802 18.3744 83.2413 18.5794C83.6953 18.7844 84.0907 19.07 84.4275 19.4361C84.7644 19.7876 85.028 20.2049 85.2183 20.6882C85.4234 21.1715 85.5259 21.684 85.5259 22.2259C85.5259 22.7531 85.4234 23.2583 85.2183 23.7416C85.028 24.2102 84.7644 24.6276 84.4275 24.9937Z" fill="black"/>
<path fill-rule="evenodd" clip-rule="evenodd" d="M73.4201 27.7177V16.7344H71.531V18.316C71.4111 18.1338 71.2717 17.9634 71.1126 17.8048C70.7857 17.4788 70.376 17.2026 69.8835 16.976C69.1513 16.6245 68.3678 16.4488 67.533 16.4488C66.713 16.4488 65.9514 16.5953 65.2485 16.8881C64.5602 17.181 63.9598 17.5911 63.4472 18.1183C62.9347 18.6308 62.532 19.2459 62.2391 19.9635C61.9462 20.6664 61.7997 21.4353 61.7997 22.27C61.7997 23.0901 61.9389 23.8516 62.2171 24.5545C62.51 25.2428 62.9054 25.8432 63.4033 26.3558C63.9012 26.8684 64.4943 27.2711 65.1826 27.564C65.8709 27.8569 66.6104 28.0033 67.4012 28.0033C68.5289 28.0033 69.51 27.7397 70.3448 27.2125C70.623 27.0514 70.8354 26.8903 70.9818 26.7292C71.0239 26.6871 71.0675 26.6396 71.1126 26.5865C71.2401 26.4364 71.3795 26.2423 71.531 26.0043V27.7177H73.4201ZM71.1126 27.1849V28.1361H73.8385V16.316H71.1126V17.2423C70.8076 16.9937 70.4561 16.7791 70.0614 16.5973C69.272 16.219 68.4275 16.0304 67.533 16.0304C66.662 16.0304 65.8453 16.1862 65.0876 16.5019L65.0847 16.5031C64.3471 16.817 63.7008 17.2578 63.1493 17.8245C62.596 18.3783 62.1643 19.04 61.8523 19.8039C61.5365 20.5622 61.3813 21.3859 61.3813 22.27C61.3813 23.1383 61.5288 23.9526 61.8281 24.7085L61.83 24.7135L61.8321 24.7184C62.1442 25.4518 62.5677 26.0961 63.1032 26.6473C63.6417 27.2017 64.2817 27.6353 65.0188 27.949C65.7618 28.2652 66.5574 28.4217 67.4012 28.4217C68.5935 28.4217 69.6522 28.1428 70.5614 27.5706C70.7707 27.4489 70.9566 27.321 71.1126 27.1849ZM69.0707 25.8286C68.6167 26.0336 68.1261 26.1361 67.5989 26.1361C67.0864 26.1361 66.5958 26.0336 66.1272 25.8286C65.6732 25.6236 65.2778 25.3453 64.941 24.9939C64.6041 24.6424 64.3332 24.2323 64.1282 23.7637C63.9378 23.2805 63.8426 22.7752 63.8426 22.248C63.8426 21.7062 63.9378 21.1936 64.1282 20.7104C64.3332 20.2271 64.6041 19.8097 64.941 19.4582C65.2778 19.1068 65.6732 18.8285 66.1272 18.6235C66.5812 18.4185 67.0717 18.316 67.5989 18.316C68.1261 18.316 68.6167 18.4185 69.0707 18.6235C69.5393 18.8285 69.9421 19.1141 70.2789 19.4802C70.6157 19.8317 70.8793 20.249 71.0697 20.7323C71.2747 21.2156 71.3772 21.7281 71.3772 22.27C71.3772 22.7972 71.2747 23.2951 71.0697 23.7637C70.8793 24.2323 70.6084 24.6424 70.2569 24.9939C69.9201 25.3453 69.5247 25.6236 69.0707 25.8286ZM64.5155 20.8688C64.702 20.4307 64.9451 20.0586 65.2431 19.7478C65.542 19.4358 65.893 19.1884 66.2994 19.0048C66.6961 18.8257 67.1276 18.7344 67.5989 18.7344C68.0703 18.7344 68.5018 18.8257 68.8985 19.0048L68.9007 19.0059L68.903 19.0068C69.32 19.1893 69.6745 19.4413 69.971 19.7635L69.9738 19.7666L69.9768 19.7697C70.2735 20.0793 70.5086 20.4496 70.6804 20.8857L70.6824 20.8907L70.6845 20.8957C70.8669 21.3256 70.9588 21.7824 70.9588 22.27C70.9588 22.7413 70.8675 23.1819 70.6863 23.596L70.6841 23.6011L70.682 23.6062C70.5123 24.024 70.2723 24.3868 69.9611 24.698L69.9579 24.7011L69.9548 24.7044C69.6559 25.0163 69.3049 25.2637 68.8985 25.4473C68.5018 25.6264 68.0703 25.7177 67.5989 25.7177C67.1448 25.7177 66.7121 25.6274 66.2971 25.4462C65.8917 25.2628 65.5414 25.0157 65.2431 24.7044C64.9436 24.3919 64.7006 24.026 64.5147 23.6031C64.3457 23.1717 64.261 22.7209 64.261 22.248C64.261 21.7583 64.3465 21.2996 64.5155 20.8688Z" fill="black"/>
<path fill-rule="evenodd" clip-rule="evenodd" d="M59.1919 28.136H56.2023V15.4612H52.5807V12.6474H62.7915V15.4612H59.1919V28.136ZM56.6207 15.0428V27.7176H58.7734V15.0428H62.3731V13.0658H52.9991V15.0428H56.6207Z" fill="black"/>
<path fill-rule="evenodd" clip-rule="evenodd" d="M26.9787 3.00604V12.3076C26.9787 16.9442 32.5846 19.2662 35.8632 15.9876L39.9828 11.868L37.1289 9.01404L33.0092 13.1337C32.2732 13.8697 31.0147 13.3485 31.0147 12.3076V3.00604H26.9787ZM45.9896 18.0123H36.7361C32.0885 18.0123 29.7715 23.6409 33.0722 26.9128L37.134 30.9392L39.9754 28.0728L35.9136 24.0464C35.1726 23.3119 35.6928 22.0483 36.7361 22.0483H45.9896V18.0123ZM31.0147 27.6925L31.0147 36.994H26.9787L26.9787 27.6925C26.9787 26.6516 25.7202 26.1303 24.9842 26.8663L20.9177 30.9329L18.0637 28.079L22.1302 24.0124C25.4088 20.7338 31.0147 23.0558 31.0147 27.6925ZM12.0018 22.0181H21.3033C25.9399 22.0181 28.262 16.4122 24.9834 13.1336L20.8637 9.01384L18.0097 11.8678L22.1294 15.9875C22.8655 16.7235 22.3442 17.982 21.3033 17.982H12.0018L12.0018 22.0181Z" fill="white"/>
<path fill-rule="evenodd" clip-rule="evenodd" d="M26.9787 3.00604V12.3076C26.9787 16.9442 32.5846 19.2662 35.8632 15.9876L39.9828 11.868L37.1289 9.01404L33.0092 13.1337C32.2732 13.8697 31.0147 13.3485 31.0147 12.3076V3.00604H26.9787ZM45.9896 18.0123H36.7361C32.0885 18.0123 29.7715 23.6409 33.0722 26.9128L37.134 30.9392L39.9754 28.0728L35.9136 24.0464C35.1726 23.3119 35.6928 22.0483 36.7361 22.0483H45.9896V18.0123ZM31.0147 27.6925L31.0147 36.994H26.9787L26.9787 27.6925C26.9787 26.6516 25.7202 26.1303 24.9842 26.8663L20.9177 30.9329L18.0637 28.079L22.1302 24.0124C25.4088 20.7338 31.0147 23.0558 31.0147 27.6925ZM12.0018 22.0181H21.3033C25.9399 22.0181 28.262 16.4122 24.9834 13.1336L20.8637 9.01384L18.0097 11.8678L22.1294 15.9875C22.8655 16.7235 22.3442 17.982 21.3033 17.982H12.0018L12.0018 22.0181Z" fill="#FF5C01"/>
<mask id="mask0_271_465" style="mask-type:alpha" maskUnits="userSpaceOnUse" x="12" y="3" width="34" height="34">
<path fill-rule="evenodd" clip-rule="evenodd" d="M26.9768 3.00598V12.3075C26.9768 16.9442 32.5827 19.2662 35.8613 15.9876L39.981 11.8679L37.127 9.01397L33.0074 13.1337C32.2714 13.8697 31.0129 13.3484 31.0129 12.3075V3.00598H26.9768ZM45.9878 18.0122H36.7343C32.0867 18.0122 29.7696 23.6408 33.0704 26.9128L37.1322 30.9392L39.9736 28.0727L35.9118 24.0463C35.1708 23.3118 35.6909 22.0483 36.7343 22.0483H45.9878V18.0122ZM31.0129 27.6924L31.0129 36.9939H26.9768L26.9768 27.6924C26.9768 26.6515 25.7184 26.1302 24.9824 26.8663L20.9158 30.9328L18.0619 28.0789L22.1284 24.0124C25.407 20.7337 31.0129 23.0558 31.0129 27.6924ZM12 22.018H21.3015C25.9381 22.018 28.2601 16.4121 24.9816 13.1335L20.8618 9.01378L18.0079 11.8677L22.1276 15.9875C22.8636 16.7235 22.3423 17.9819 21.3015 17.9819H12V22.018Z" fill="white"/>
<path fill-rule="evenodd" clip-rule="evenodd" d="M26.9768 3.00598V12.3075C26.9768 16.9442 32.5827 19.2662 35.8613 15.9876L39.981 11.8679L37.127 9.01397L33.0074 13.1337C32.2714 13.8697 31.0129 13.3484 31.0129 12.3075V3.00598H26.9768ZM45.9878 18.0122H36.7343C32.0867 18.0122 29.7696 23.6408 33.0704 26.9128L37.1322 30.9392L39.9736 28.0727L35.9118 24.0463C35.1708 23.3118 35.6909 22.0483 36.7343 22.0483H45.9878V18.0122ZM31.0129 27.6924L31.0129 36.9939H26.9768L26.9768 27.6924C26.9768 26.6515 25.7184 26.1302 24.9824 26.8663L20.9158 30.9328L18.0619 28.0789L22.1284 24.0124C25.407 20.7337 31.0129 23.0558 31.0129 27.6924ZM12 22.018H21.3015C25.9381 22.018 28.2601 16.4121 24.9816 13.1335L20.8618 9.01378L18.0079 11.8677L22.1276 15.9875C22.8636 16.7235 22.3423 17.9819 21.3015 17.9819H12V22.018Z" fill="#FF5C01"/>
</mask>
<g mask="url(#mask0_271_465)">
<path d="M-2.95007 9.71844C12.1527 13.1491 45.8548 16.5354 59.8411 2.63505" stroke="#FF8412" stroke-width="6.46529"/>
<path d="M-2.95007 26.5284C12.1527 29.9591 45.8548 33.3454 59.8411 19.445" stroke="#FF8412" stroke-width="7.75835"/>
</g>
<g clip-path="url(#clip0_271_465)">
<path d="M111.467 18.14V18.76H109V18.14H111.467ZM109.719 17H110.45V21.537C110.45 21.744 110.48 21.899 110.54 22.002C110.602 22.103 110.68 22.172 110.776 22.207C110.873 22.24 110.976 22.257 111.083 22.257C111.163 22.257 111.229 22.252 111.281 22.244L111.405 22.219L111.554 22.876C111.379 22.9378 111.194 22.9673 111.009 22.963C110.802 22.963 110.599 22.918 110.401 22.83C110.204 22.7409 110.035 22.6007 109.911 22.424C109.783 22.242 109.719 22.012 109.719 21.736V17ZM114.512 23C114.053 23 113.658 22.899 113.325 22.696C112.993 22.4902 112.727 22.1935 112.559 21.841C112.382 21.473 112.293 21.045 112.293 20.558C112.293 20.07 112.382 19.641 112.559 19.268C112.739 18.895 112.989 18.603 113.309 18.395C113.646 18.1801 114.039 18.0702 114.438 18.079C114.685 18.079 114.93 18.119 115.172 18.202C115.414 18.285 115.634 18.419 115.832 18.605C116.03 18.789 116.188 19.033 116.306 19.337C116.424 19.641 116.483 20.014 116.483 20.459V20.769H112.813V20.136H115.739C115.739 19.868 115.685 19.628 115.578 19.417C115.477 19.2114 115.321 19.0384 115.126 18.918C114.919 18.7928 114.68 18.7297 114.438 18.736C114.146 18.736 113.894 18.808 113.681 18.952C113.471 19.095 113.308 19.281 113.195 19.51C113.081 19.74 113.025 19.986 113.025 20.248V20.669C113.025 21.029 113.086 21.334 113.21 21.584C113.336 21.832 113.51 22.021 113.734 22.151C113.957 22.279 114.216 22.343 114.512 22.343C114.704 22.343 114.878 22.316 115.032 22.263C115.184 22.2106 115.322 22.1257 115.438 22.014C115.556 21.8969 115.646 21.7552 115.702 21.599L116.409 21.798C116.334 22.038 116.209 22.248 116.034 22.43C115.858 22.61 115.641 22.75 115.383 22.851C115.125 22.951 114.834 23 114.512 23ZM120.967 19.207L120.31 19.393C120.266 19.2777 120.205 19.1698 120.128 19.073C120.042 18.9621 119.932 18.873 119.805 18.813C119.641 18.7391 119.461 18.7042 119.281 18.711C118.991 18.711 118.747 18.778 118.553 18.912C118.361 19.044 118.265 19.212 118.265 19.417C118.265 19.599 118.331 19.743 118.463 19.848C118.596 19.954 118.803 20.041 119.083 20.112L119.79 20.285C120.215 20.388 120.533 20.546 120.741 20.759C120.95 20.97 121.054 21.242 121.054 21.574C121.054 21.847 120.976 22.091 120.819 22.306C120.651 22.5307 120.427 22.7061 120.168 22.814C119.86 22.9436 119.529 23.007 119.195 23C118.709 23 118.307 22.895 117.989 22.684C117.671 22.474 117.469 22.165 117.385 21.76L118.079 21.587C118.145 21.843 118.27 22.035 118.454 22.163C118.64 22.291 118.883 22.355 119.182 22.355C119.523 22.355 119.794 22.283 119.994 22.138C120.197 21.992 120.298 21.816 120.298 21.612C120.3 21.5343 120.285 21.4572 120.255 21.3855C120.225 21.3138 120.181 21.2493 120.124 21.196C120.009 21.083 119.831 20.998 119.591 20.942L118.798 20.756C118.362 20.653 118.042 20.493 117.838 20.276C117.634 20.0524 117.525 19.7578 117.534 19.455C117.534 19.186 117.609 18.948 117.76 18.742C117.922 18.5282 118.136 18.3603 118.383 18.255C118.647 18.137 118.947 18.079 119.282 18.079C119.752 18.079 120.122 18.182 120.391 18.389C120.661 18.595 120.854 18.868 120.967 19.207ZM124.226 18.14V18.76H121.759V18.14H124.226ZM122.477 17H123.207V21.537C123.207 21.744 123.237 21.899 123.297 22.002C123.36 22.103 123.438 22.172 123.533 22.207C123.631 22.24 123.733 22.257 123.84 22.257C123.92 22.257 123.987 22.252 124.038 22.244L124.162 22.219L124.312 22.876C124.137 22.9378 123.952 22.9673 123.767 22.963C123.557 22.9621 123.349 22.9168 123.158 22.83C122.961 22.7409 122.792 22.6007 122.668 22.424C122.541 22.242 122.476 22.012 122.476 21.736L122.477 17ZM126.057 20.037V22.901H125.326V18.14H126.032V18.883H126.094C126.204 18.644 126.38 18.4418 126.602 18.301C126.83 18.151 127.123 18.078 127.482 18.078C127.805 18.078 128.087 18.144 128.329 18.276C128.57 18.406 128.759 18.604 128.893 18.871C129.027 19.135 129.094 19.471 129.094 19.875V22.9H128.363V19.926C128.363 19.552 128.266 19.26 128.072 19.052C127.877 18.841 127.611 18.736 127.272 18.736C127.039 18.736 126.83 18.786 126.646 18.887C126.463 18.9903 126.313 19.1445 126.216 19.331C126.11 19.525 126.057 19.761 126.057 20.037ZM132.427 23C131.968 23 131.572 22.899 131.24 22.696C130.908 22.4903 130.642 22.1935 130.474 21.841C130.297 21.473 130.208 21.045 130.208 20.558C130.208 20.07 130.297 19.641 130.474 19.268C130.654 18.895 130.904 18.603 131.224 18.395C131.56 18.1802 131.953 18.0702 132.352 18.079C132.6 18.079 132.845 18.119 133.087 18.202C133.328 18.285 133.549 18.419 133.747 18.605C133.945 18.789 134.103 19.033 134.221 19.337C134.339 19.641 134.398 20.014 134.398 20.459V20.769H130.728V20.136H133.654C133.654 19.868 133.6 19.628 133.493 19.417C133.392 19.2112 133.235 19.0382 133.04 18.918C132.833 18.7928 132.594 18.7297 132.352 18.736C132.061 18.736 131.809 18.808 131.596 18.952C131.386 19.095 131.223 19.281 131.11 19.51C130.997 19.7394 130.938 19.9921 130.94 20.248V20.669C130.94 21.029 131.001 21.334 131.125 21.584C131.251 21.832 131.425 22.021 131.649 22.151C131.872 22.279 132.131 22.343 132.427 22.343C132.619 22.343 132.792 22.316 132.947 22.263C133.104 22.207 133.24 22.124 133.353 22.014C133.471 21.8969 133.561 21.7552 133.617 21.599L134.323 21.798C134.249 22.038 134.124 22.248 133.948 22.43C133.773 22.61 133.556 22.75 133.298 22.851C133.019 22.9541 132.724 23.0047 132.427 23ZM137.58 18.14V18.76H135.114V18.14H137.58ZM135.834 17H136.565V21.537C136.565 21.744 136.595 21.899 136.655 22.002C136.717 22.103 136.795 22.172 136.891 22.207C136.988 22.24 137.09 22.257 137.197 22.257C137.277 22.257 137.344 22.252 137.396 22.244L137.52 22.219L137.668 22.876C137.493 22.938 137.308 22.9674 137.122 22.963C136.916 22.963 136.714 22.918 136.515 22.83C136.318 22.7409 136.149 22.6007 136.025 22.424C135.898 22.242 135.834 22.012 135.834 21.736V17Z" fill="#FF5C01"/>
<path d="M137.667 13.2H109C106.901 13.2 105.2 14.9013 105.2 17V23C105.2 25.0987 106.901 26.8 109 26.8H137.667C139.766 26.8 141.467 25.0987 141.467 23V17C141.467 14.9013 139.766 13.2 137.667 13.2Z" stroke="#FF5C01" stroke-width="0.4"/>
</g>
<defs>
<clipPath id="clip0_271_465">
<rect width="37" height="14" fill="white" transform="translate(105 13)"/>
</clipPath>
</defs>
</svg>
