<svg width="181" height="40" viewBox="0 0 181 40" fill="none" xmlns="http://www.w3.org/2000/svg">
<path d="M92.6459 17.2819V27.7206H90.3407V17.2819H92.6459ZM92.6459 13.0636V15.4808H90.3407V13.0636H92.6459Z" fill="white"/>
<path d="M78.6901 27.7206H76.7783V13.0636H78.8439V18.2715C79.2981 17.6563 79.8474 17.1948 80.492 16.8872C81.1366 16.5649 81.8544 16.4037 82.6455 16.4037C83.4219 16.4037 84.1544 16.5575 84.8429 16.8652C85.5315 17.1728 86.1321 17.5903 86.6449 18.1177C87.1576 18.6451 87.5605 19.2677 87.8534 19.9856C88.1611 20.6887 88.3149 21.4432 88.3149 22.2489C88.3149 23.0547 88.1684 23.8091 87.8754 24.5123C87.5824 25.2155 87.1796 25.8234 86.6668 26.3362C86.1687 26.8489 85.5681 27.2591 84.8649 27.5667C84.1764 27.8597 83.4366 28.0062 82.6455 28.0062C81.7519 28.0062 80.9828 27.8597 80.3382 27.5667C79.7082 27.2737 79.1589 26.805 78.6901 26.1604V27.7206ZM82.5356 18.2715C82.0082 18.2715 81.5175 18.3741 81.0633 18.5792C80.6092 18.7843 80.2063 19.07 79.8547 19.4362C79.5178 19.7878 79.2541 20.2053 79.0637 20.6887C78.8732 21.1722 78.778 21.6922 78.778 22.2489C78.778 22.791 78.8732 23.3037 79.0637 23.7871C79.2688 24.2559 79.5398 24.6661 79.8767 25.0177C80.2137 25.3693 80.6092 25.6476 81.0633 25.8527C81.5175 26.0432 82.0009 26.1384 82.5137 26.1384C83.0264 26.1384 83.5098 26.0359 83.964 25.8308C84.4181 25.6257 84.8136 25.3473 85.1506 24.9957C85.4875 24.6295 85.7512 24.212 85.9417 23.7432C86.1468 23.2597 86.2493 22.7543 86.2493 22.2269C86.2493 21.6849 86.1468 21.1722 85.9417 20.6887C85.7512 20.2053 85.4875 19.7878 85.1506 19.4362C84.8136 19.07 84.4181 18.7843 83.964 18.5792C83.5245 18.3741 83.0484 18.2715 82.5356 18.2715Z" fill="white"/>
<path d="M74.1394 27.7207H72.2496V26.0067C72.0445 26.329 71.8614 26.5707 71.7002 26.7319C71.5537 26.893 71.3413 27.0542 71.063 27.2153C70.2279 27.7427 69.2464 28.0064 68.1184 28.0064C67.3273 28.0064 66.5875 27.8599 65.899 27.5669C65.2104 27.2739 64.6171 26.8711 64.119 26.3583C63.6209 25.8456 63.2254 25.245 62.9324 24.5564C62.6541 23.8532 62.5149 23.0915 62.5149 22.2711C62.5149 21.436 62.6614 20.6669 62.9544 19.9638C63.2474 19.2459 63.6502 18.6306 64.163 18.1179C64.6757 17.5905 65.2763 17.1803 65.9649 16.8873C66.6681 16.5943 67.4298 16.4478 68.2502 16.4478C69.0853 16.4478 69.869 16.6236 70.6015 16.9752C71.334 17.3122 71.8833 17.759 72.2496 18.3157V16.7335H74.1394V27.7207ZM68.3161 26.1386C68.8435 26.1386 69.3343 26.036 69.7884 25.8309C70.2426 25.6258 70.6381 25.3475 70.9751 24.9959C71.3267 24.6443 71.5977 24.2341 71.7881 23.7653C71.9932 23.2966 72.0958 22.7985 72.0958 22.2711C72.0958 21.729 71.9932 21.2163 71.7881 20.7329C71.5977 20.2494 71.334 19.8319 70.997 19.4803C70.6601 19.1141 70.2572 18.8284 69.7884 18.6233C69.3343 18.4182 68.8435 18.3157 68.3161 18.3157C67.7888 18.3157 67.298 18.4182 66.8439 18.6233C66.3897 18.8284 65.9942 19.1068 65.6572 19.4583C65.3203 19.8099 65.0493 20.2275 64.8442 20.7109C64.6537 21.1943 64.5585 21.7071 64.5585 22.2491C64.5585 22.7765 64.6537 23.2819 64.8442 23.7653C65.0493 24.2341 65.3203 24.6443 65.6572 24.9959C65.9942 25.3475 66.3897 25.6258 66.8439 25.8309C67.3126 26.036 67.8034 26.1386 68.3161 26.1386Z" fill="white"/>
<path d="M59.4873 27.7206H57.3338V15.0413H53.7109V13.0636H63.0883V15.0413H59.4873V27.7206Z" fill="white"/>
<path fill-rule="evenodd" clip-rule="evenodd" d="M93.0645 16.8631V28.1388H89.9221V16.8631H93.0645ZM93.0645 12.6447V15.8991H89.9221V12.6447H93.0645ZM92.6459 17.2816H90.3407V27.7203H92.6459V17.2816ZM92.6459 13.0633H90.3407V15.4805H92.6459V13.0633Z" fill="white"/>
<path fill-rule="evenodd" clip-rule="evenodd" d="M79.1088 28.1388H76.3599V12.6447H79.2626V17.1987C79.5799 16.9222 79.9285 16.6924 80.3084 16.5108C81.0157 16.1578 81.7974 15.9849 82.6456 15.9849C83.4791 15.9849 84.2699 16.1504 85.0138 16.4827C85.7495 16.8115 86.3944 17.2592 86.9451 17.8257C87.4961 18.3924 87.9271 19.0594 88.2391 19.8223C88.5696 20.5796 88.7336 21.3899 88.7336 22.2486C88.7336 23.1064 88.5773 23.9159 88.2619 24.673C87.9493 25.4231 87.5173 26.0768 86.965 26.6297C86.4268 27.1831 85.781 27.6226 85.0328 27.9499L85.0309 27.9508L85.0289 27.9516C84.2856 28.2679 83.4897 28.4245 82.6456 28.4245C81.7074 28.4245 80.8763 28.2708 80.1651 27.9475L80.1618 27.946C79.7814 27.7691 79.4305 27.536 79.1088 27.2496V28.1388ZM79.1088 26.6664C78.9628 26.5118 78.8232 26.343 78.6902 26.1601V27.7203H76.7784V13.0633H78.844V18.2713C78.9756 18.093 79.1151 17.9277 79.2626 17.7753C79.6244 17.4016 80.0342 17.1054 80.4921 16.8869C81.1367 16.5646 81.8545 16.4034 82.6456 16.4034C83.422 16.4034 84.1545 16.5572 84.843 16.8649C85.5316 17.1725 86.1322 17.59 86.645 18.1174C87.1577 18.6448 87.5606 19.2674 87.8536 19.9853C88.1612 20.6884 88.315 21.4429 88.315 22.2486C88.315 23.0544 88.1685 23.8088 87.8755 24.512C87.5825 25.2152 87.1797 25.8231 86.6669 26.3359C86.1688 26.8486 85.5682 27.2588 84.865 27.5664C84.1765 27.8594 83.4367 28.0059 82.6456 28.0059C81.752 28.0059 80.9829 27.8594 80.3383 27.5664C79.8871 27.3566 79.4773 27.0566 79.1088 26.6664ZM85.5552 23.5824L85.5565 23.5794C85.7395 23.1479 85.8309 22.6981 85.8309 22.2267C85.8309 21.7389 85.7389 21.282 85.5565 20.8519L85.5543 20.8469L85.5523 20.8419C85.3805 20.4056 85.1453 20.0352 84.8485 19.7255L84.8455 19.7224L84.8427 19.7193C84.544 19.3946 84.1946 19.1423 83.7918 18.9604L83.7894 18.9593L83.7871 18.9582C83.4062 18.7804 82.9909 18.6898 82.5357 18.6898C82.0642 18.6898 81.6326 18.7811 81.2357 18.9604C80.8312 19.1431 80.4721 19.3973 80.1568 19.7258C79.8601 20.0354 79.625 20.4057 79.4532 20.8419C79.2833 21.273 79.1967 21.7407 79.1967 22.2486C79.1967 22.7377 79.2819 23.1958 79.4504 23.6262C79.6364 24.0492 79.8795 24.4153 80.179 24.7278C80.4768 25.0385 80.8262 25.2853 81.2305 25.4686C81.6298 25.6352 82.0563 25.7195 82.5138 25.7195C82.9689 25.7195 83.3934 25.6289 83.7918 25.449C84.197 25.266 84.5472 25.0195 84.8456 24.7089C85.1466 24.3809 85.3826 24.0072 85.554 23.5854L85.5552 23.5824ZM85.1507 24.9954C84.8138 25.347 84.4182 25.6254 83.9641 25.8305C83.5099 26.0356 83.0265 26.1381 82.5138 26.1381C82.001 26.1381 81.5176 26.0429 81.0634 25.8524C80.6093 25.6473 80.2138 25.369 79.8768 25.0174C79.5399 24.6658 79.2689 24.2556 79.0638 23.7868C78.8733 23.3034 78.7781 22.7907 78.7781 22.2486C78.7781 21.6919 78.8733 21.1719 79.0638 20.6884C79.2542 20.205 79.5179 19.7875 79.8548 19.4359C80.2064 19.0697 80.6093 18.784 81.0634 18.5789C81.5176 18.3738 82.0083 18.2713 82.5357 18.2713C83.0485 18.2713 83.5246 18.3738 83.9641 18.5789C84.4182 18.784 84.8138 19.0697 85.1507 19.4359C85.4876 19.7875 85.7513 20.205 85.9418 20.6884C86.1469 21.1719 86.2494 21.6846 86.2494 22.2267C86.2494 22.754 86.1469 23.2595 85.9418 23.7429C85.7513 24.2117 85.4876 24.6292 85.1507 24.9954Z" fill="white"/>
<path fill-rule="evenodd" clip-rule="evenodd" d="M74.1394 27.7205V16.7333H72.2496V18.3154C72.1297 18.1332 71.9901 17.9627 71.831 17.804C71.504 17.478 71.0942 17.2016 70.6015 16.975C69.869 16.6234 69.0852 16.4476 68.2502 16.4476C67.4298 16.4476 66.668 16.5941 65.9649 16.8871C65.2763 17.1801 64.6757 17.5903 64.163 18.1176C63.6502 18.6304 63.2474 19.2457 62.9544 19.9635C62.6614 20.6667 62.5149 21.4358 62.5149 22.2708C62.5149 23.0912 62.654 23.853 62.9324 24.5562C63.2254 25.2447 63.6209 25.8453 64.119 26.3581C64.6171 26.8708 65.2104 27.2737 65.8989 27.5667C66.5875 27.8597 67.3273 28.0061 68.1184 28.0061C69.2464 28.0061 70.2279 27.7425 71.0629 27.2151C71.3413 27.0539 71.5537 26.8928 71.7002 26.7316C71.7423 26.6895 71.7859 26.6419 71.831 26.5888C71.9585 26.4387 72.098 26.2446 72.2496 26.0065V27.7205H74.1394ZM71.831 27.1875V28.139H74.5579V16.3147H71.831V17.2414C71.5259 16.9926 71.1743 16.778 70.7795 16.5961C69.9898 16.2176 69.145 16.029 68.2502 16.029C67.3789 16.029 66.5619 16.1849 65.8039 16.5007L65.801 16.5019C65.0631 16.8159 64.4166 17.2568 63.8649 17.8238C63.3115 18.3778 62.8796 19.0397 62.5674 19.8039C62.2516 20.5624 62.0963 21.3864 62.0963 22.2708C62.0963 23.1394 62.2439 23.954 62.5432 24.7102L62.5452 24.7152L62.5472 24.72C62.8595 25.4538 63.2831 26.0983 63.8188 26.6497C64.3575 27.2042 64.9977 27.6381 65.7351 27.9518C66.4783 28.2681 67.2742 28.4247 68.1184 28.4247C69.311 28.4247 70.3701 28.1457 71.2796 27.5733C71.489 27.4516 71.6749 27.3236 71.831 27.1875ZM69.7884 25.8307C69.3343 26.0358 68.8435 26.1383 68.3161 26.1383C67.8034 26.1383 67.3126 26.0358 66.8438 25.8307C66.3897 25.6256 65.9942 25.3472 65.6572 24.9956C65.3203 24.6441 65.0493 24.2339 64.8442 23.7651C64.6537 23.2816 64.5585 22.7762 64.5585 22.2488C64.5585 21.7068 64.6537 21.1941 64.8442 20.7106C65.0493 20.2272 65.3203 19.8097 65.6572 19.4581C65.9942 19.1065 66.3897 18.8281 66.8438 18.6231C67.298 18.418 67.7887 18.3154 68.3161 18.3154C68.8435 18.3154 69.3343 18.418 69.7884 18.6231C70.2572 18.8281 70.6601 19.1138 70.997 19.4801C71.334 19.8316 71.5977 20.2492 71.7881 20.7326C71.9932 21.216 72.0957 21.7288 72.0957 22.2708C72.0957 22.7982 71.9932 23.2963 71.7881 23.7651C71.5977 24.2339 71.3266 24.6441 70.975 24.9956C70.6381 25.3472 70.2426 25.6256 69.7884 25.8307ZM65.2316 20.8691C65.4182 20.4309 65.6614 20.0587 65.9594 19.7477C66.2585 19.4357 66.6096 19.1881 67.0161 19.0045C67.413 18.8253 67.8446 18.734 68.3161 18.734C68.7876 18.734 69.2193 18.8253 69.6161 19.0045L69.6184 19.0055L69.6207 19.0065C70.0378 19.189 70.3925 19.4412 70.689 19.7634L70.6919 19.7666L70.6948 19.7697C70.9916 20.0794 71.2268 20.4498 71.3987 20.886L71.4007 20.8911L71.4028 20.8961C71.5852 21.3261 71.6772 21.7831 71.6772 22.2708C71.6772 22.7423 71.5859 23.1831 71.4046 23.5973L71.4024 23.6024L71.4003 23.6075C71.2305 24.0255 70.9904 24.3883 70.6791 24.6997L70.6759 24.7028L70.6728 24.706C70.3738 25.0181 70.0227 25.2656 69.6161 25.4492C69.2193 25.6284 68.7876 25.7198 68.3161 25.7198C67.8618 25.7198 67.4289 25.6294 67.0138 25.4482C66.6083 25.2647 66.2579 25.0175 65.9594 24.706C65.6599 24.3935 65.4168 24.0275 65.2308 23.6044C65.0617 23.1728 64.9771 22.7219 64.9771 22.2488C64.9771 21.7589 65.0626 21.3001 65.2316 20.8691Z" fill="white"/>
<path fill-rule="evenodd" clip-rule="evenodd" d="M59.9061 28.1389H56.9155V15.4596H53.2926V12.6448H63.5071V15.4596H59.9061V28.1389ZM57.3341 15.041V27.7203H59.4876V15.041H63.0885V13.0633H53.7112V15.041H57.3341Z" fill="white"/>
<path fill-rule="evenodd" clip-rule="evenodd" d="M27.6816 3.00006V12.3049C27.6816 16.9431 33.2894 19.266 36.5692 15.9862L40.6903 11.8651L37.8353 9.01017L33.7142 13.1313C32.978 13.8676 31.7191 13.3461 31.7191 12.3049V3.00006H27.6816ZM46.6992 18.0116H37.4425C32.7932 18.0116 30.4754 23.6422 33.7773 26.9153L37.8405 30.9431L40.683 28.0757L36.6197 24.0478C35.8784 23.3131 36.3988 22.0491 37.4425 22.0491L46.6992 22.0491V18.0116ZM31.7191 27.6952L31.7191 37H27.6816L27.6816 27.6952C27.6816 26.6539 26.4226 26.1325 25.6864 26.8688L21.6184 30.9368L18.7635 28.0818L22.8314 24.0138C26.1112 20.7341 31.7191 23.0569 31.7191 27.6952ZM12.6995 22.0188H22.0042C26.6425 22.0188 28.9653 16.4109 25.6856 13.1312L21.5644 9.00998L18.7095 11.8649L22.8307 15.9861C23.5669 16.7224 23.0455 17.9813 22.0042 17.9813H12.6995L12.6995 22.0188Z" fill="white"/>
<path fill-rule="evenodd" clip-rule="evenodd" d="M27.6816 3.00006V12.3049C27.6816 16.9431 33.2894 19.266 36.5692 15.9862L40.6903 11.8651L37.8353 9.01017L33.7142 13.1313C32.978 13.8676 31.7191 13.3461 31.7191 12.3049V3.00006H27.6816ZM46.6992 18.0116H37.4425C32.7932 18.0116 30.4754 23.6422 33.7773 26.9153L37.8405 30.9431L40.683 28.0757L36.6197 24.0478C35.8784 23.3131 36.3988 22.0491 37.4425 22.0491L46.6992 22.0491V18.0116ZM31.7191 27.6952L31.7191 37H27.6816L27.6816 27.6952C27.6816 26.6539 26.4226 26.1325 25.6864 26.8688L21.6184 30.9368L18.7635 28.0818L22.8314 24.0138C26.1112 20.7341 31.7191 23.0569 31.7191 27.6952ZM12.6995 22.0188H22.0042C26.6425 22.0188 28.9653 16.4109 25.6856 13.1312L21.5644 9.00998L18.7095 11.8649L22.8307 15.9861C23.5669 16.7224 23.0455 17.9813 22.0042 17.9813H12.6995L12.6995 22.0188Z" fill="#FF5C01"/>
<mask id="mask0_259_20315" style="mask-type:alpha" maskUnits="userSpaceOnUse" x="12" y="3" width="35" height="34">
<path fill-rule="evenodd" clip-rule="evenodd" d="M27.6797 3V12.3048C27.6797 16.9431 33.2876 19.2659 36.5674 15.9862L40.6884 11.865L37.8335 9.01011L33.7124 13.1312C32.9761 13.8675 31.7172 13.3461 31.7172 12.3048V3H27.6797ZM46.6974 18.0115H37.4406C32.7914 18.0115 30.4735 23.6421 33.7754 26.9152L37.8387 30.943L40.6811 28.0756L36.6178 24.0478C35.8766 23.313 36.3969 22.049 37.4406 22.049L46.6974 22.049V18.0115ZM31.7172 27.6951L31.7172 36.9999H27.6797L27.6797 27.6951C27.6797 26.6539 26.4208 26.1324 25.6845 26.8687L21.6166 30.9367L18.7616 28.0818L22.8296 24.0138C26.1093 20.734 31.7172 23.0569 31.7172 27.6951ZM12.6976 22.0187H22.0024C26.6406 22.0187 28.9635 16.4109 25.6838 13.1311L21.5626 9.00992L18.7077 11.8648L22.8288 15.9861C23.5651 16.7223 23.0436 17.9812 22.0024 17.9812H12.6976V22.0187Z" fill="white"/>
<path fill-rule="evenodd" clip-rule="evenodd" d="M27.6797 3V12.3048C27.6797 16.9431 33.2876 19.2659 36.5674 15.9862L40.6884 11.865L37.8335 9.01011L33.7124 13.1312C32.9761 13.8675 31.7172 13.3461 31.7172 12.3048V3H27.6797ZM46.6974 18.0115H37.4406C32.7914 18.0115 30.4735 23.6421 33.7754 26.9152L37.8387 30.943L40.6811 28.0756L36.6178 24.0478C35.8766 23.313 36.3969 22.049 37.4406 22.049L46.6974 22.049V18.0115ZM31.7172 27.6951L31.7172 36.9999H27.6797L27.6797 27.6951C27.6797 26.6539 26.4208 26.1324 25.6845 26.8687L21.6166 30.9367L18.7616 28.0818L22.8296 24.0138C26.1093 20.734 31.7172 23.0569 31.7172 27.6951ZM12.6976 22.0187H22.0024C26.6406 22.0187 28.9635 16.4109 25.6838 13.1311L21.5626 9.00992L18.7077 11.8648L22.8288 15.9861C23.5651 16.7223 23.0436 17.9812 22.0024 17.9812H12.6976V22.0187Z" fill="#FF5C01"/>
</mask>
<g mask="url(#mask0_259_20315)">
<path d="M-2.25769 9.71484C12.8504 13.1467 46.5644 16.5342 60.5556 2.62895" stroke="#FF8412" stroke-width="6.46757"/>
<path d="M-2.25769 26.5307C12.8504 29.9626 46.5644 33.3501 60.5556 19.4448" stroke="#FF8412" stroke-width="7.76109"/>
</g>
<g clip-path="url(#clip0_259_20315)">
<path d="M112.165 18.14V18.76H109.698V18.14H112.165ZM110.417 17H111.148V21.537C111.148 21.744 111.178 21.899 111.238 22.002C111.3 22.103 111.378 22.172 111.474 22.207C111.571 22.24 111.674 22.257 111.781 22.257C111.861 22.257 111.927 22.252 111.979 22.244L112.103 22.219L112.252 22.876C112.077 22.9378 111.892 22.9673 111.707 22.963C111.5 22.963 111.297 22.918 111.099 22.83C110.902 22.7409 110.733 22.6007 110.609 22.424C110.481 22.242 110.417 22.012 110.417 21.736V17ZM115.21 23C114.751 23 114.356 22.899 114.023 22.696C113.691 22.4902 113.425 22.1935 113.257 21.841C113.08 21.473 112.991 21.045 112.991 20.558C112.991 20.07 113.08 19.641 113.257 19.268C113.437 18.895 113.687 18.603 114.007 18.395C114.343 18.1801 114.736 18.0702 115.136 18.079C115.383 18.079 115.628 18.119 115.87 18.202C116.112 18.285 116.332 18.419 116.53 18.605C116.728 18.789 116.886 19.033 117.004 19.337C117.122 19.641 117.181 20.014 117.181 20.459V20.769H113.511V20.136H116.437C116.437 19.868 116.383 19.628 116.276 19.417C116.175 19.2114 116.018 19.0384 115.824 18.918C115.616 18.7928 115.378 18.7297 115.136 18.736C114.844 18.736 114.592 18.808 114.379 18.952C114.169 19.095 114.006 19.281 113.893 19.51C113.779 19.74 113.723 19.986 113.723 20.248V20.669C113.723 21.029 113.784 21.334 113.908 21.584C114.034 21.832 114.208 22.021 114.432 22.151C114.655 22.279 114.914 22.343 115.21 22.343C115.402 22.343 115.576 22.316 115.73 22.263C115.882 22.2106 116.02 22.1257 116.136 22.014C116.253 21.8969 116.343 21.7552 116.4 21.599L117.107 21.798C117.032 22.038 116.907 22.248 116.732 22.43C116.556 22.61 116.339 22.75 116.081 22.851C115.823 22.951 115.532 23 115.21 23ZM121.665 19.207L121.008 19.393C120.964 19.2777 120.902 19.1698 120.826 19.073C120.74 18.9621 120.629 18.873 120.503 18.813C120.338 18.7391 120.159 18.7042 119.979 18.711C119.689 18.711 119.445 18.778 119.251 18.912C119.059 19.044 118.963 19.212 118.963 19.417C118.963 19.599 119.029 19.743 119.161 19.848C119.294 19.954 119.501 20.041 119.781 20.112L120.488 20.285C120.913 20.388 121.231 20.546 121.439 20.759C121.648 20.97 121.752 21.242 121.752 21.574C121.752 21.847 121.674 22.091 121.517 22.306C121.349 22.5307 121.124 22.7061 120.866 22.814C120.558 22.9436 120.226 23.007 119.893 23C119.407 23 119.005 22.895 118.687 22.684C118.369 22.474 118.167 22.165 118.083 21.76L118.777 21.587C118.843 21.843 118.968 22.035 119.152 22.163C119.338 22.291 119.581 22.355 119.88 22.355C120.221 22.355 120.492 22.283 120.692 22.138C120.895 21.992 120.996 21.816 120.996 21.612C120.997 21.5343 120.983 21.4572 120.953 21.3855C120.923 21.3138 120.878 21.2493 120.822 21.196C120.707 21.083 120.529 20.998 120.289 20.942L119.496 20.756C119.06 20.653 118.74 20.493 118.536 20.276C118.331 20.0524 118.222 19.7578 118.232 19.455C118.232 19.186 118.307 18.948 118.458 18.742C118.619 18.5282 118.834 18.3603 119.081 18.255C119.345 18.137 119.645 18.079 119.98 18.079C120.45 18.079 120.82 18.182 121.089 18.389C121.359 18.595 121.552 18.868 121.665 19.207ZM124.924 18.14V18.76H122.457V18.14H124.924ZM123.175 17H123.905V21.537C123.905 21.744 123.935 21.899 123.995 22.002C124.058 22.103 124.136 22.172 124.231 22.207C124.329 22.24 124.431 22.257 124.538 22.257C124.618 22.257 124.685 22.252 124.736 22.244L124.86 22.219L125.01 22.876C124.835 22.9378 124.65 22.9673 124.465 22.963C124.255 22.9621 124.047 22.9168 123.856 22.83C123.659 22.7409 123.49 22.6007 123.366 22.424C123.239 22.242 123.174 22.012 123.174 21.736L123.175 17ZM126.755 20.037V22.901H126.024V18.14H126.73V18.883H126.792C126.901 18.644 127.078 18.4418 127.3 18.301C127.528 18.151 127.821 18.078 128.18 18.078C128.503 18.078 128.785 18.144 129.027 18.276C129.268 18.406 129.457 18.604 129.591 18.871C129.725 19.135 129.792 19.471 129.792 19.875V22.9H129.061V19.926C129.061 19.552 128.964 19.26 128.77 19.052C128.575 18.841 128.309 18.736 127.97 18.736C127.737 18.736 127.528 18.786 127.344 18.887C127.16 18.9903 127.011 19.1445 126.914 19.331C126.808 19.525 126.755 19.761 126.755 20.037ZM133.125 23C132.666 23 132.27 22.899 131.938 22.696C131.606 22.4903 131.34 22.1935 131.172 21.841C130.995 21.473 130.906 21.045 130.906 20.558C130.906 20.07 130.995 19.641 131.172 19.268C131.352 18.895 131.602 18.603 131.922 18.395C132.258 18.1802 132.651 18.0702 133.05 18.079C133.298 18.079 133.543 18.119 133.785 18.202C134.026 18.285 134.247 18.419 134.445 18.605C134.643 18.789 134.801 19.033 134.919 19.337C135.037 19.641 135.096 20.014 135.096 20.459V20.769H131.426V20.136H134.352C134.352 19.868 134.298 19.628 134.191 19.417C134.09 19.2112 133.933 19.0382 133.738 18.918C133.53 18.7928 133.292 18.7297 133.05 18.736C132.759 18.736 132.507 18.808 132.294 18.952C132.084 19.095 131.921 19.281 131.808 19.51C131.694 19.7394 131.636 19.9921 131.638 20.248V20.669C131.638 21.029 131.699 21.334 131.823 21.584C131.949 21.832 132.123 22.021 132.347 22.151C132.57 22.279 132.829 22.343 133.125 22.343C133.317 22.343 133.49 22.316 133.645 22.263C133.802 22.207 133.938 22.124 134.051 22.014C134.168 21.8969 134.258 21.7552 134.315 21.599L135.021 21.798C134.947 22.038 134.822 22.248 134.646 22.43C134.471 22.61 134.254 22.75 133.996 22.851C133.717 22.9541 133.422 23.0047 133.125 23ZM138.278 18.14V18.76H135.812V18.14H138.278ZM136.532 17H137.263V21.537C137.263 21.744 137.293 21.899 137.353 22.002C137.415 22.103 137.493 22.172 137.589 22.207C137.686 22.24 137.788 22.257 137.895 22.257C137.975 22.257 138.042 22.252 138.094 22.244L138.218 22.219L138.366 22.876C138.19 22.938 138.005 22.9674 137.82 22.963C137.614 22.963 137.412 22.918 137.213 22.83C137.016 22.7409 136.847 22.6007 136.723 22.424C136.596 22.242 136.532 22.012 136.532 21.736V17Z" fill="#FF5C01"/>
<path d="M138.365 13.2H109.698C107.599 13.2 105.898 14.9013 105.898 17V23C105.898 25.0987 107.599 26.8 109.698 26.8H138.365C140.463 26.8 142.165 25.0987 142.165 23V17C142.165 14.9013 140.463 13.2 138.365 13.2Z" stroke="#FF5C01" stroke-width="0.4"/>
</g>
<defs>
<clipPath id="clip0_259_20315">
<rect width="37" height="14" fill="white" transform="translate(105.698 13)"/>
</clipPath>
</defs>
</svg>
