<svg width="130" height="34" viewBox="0 0 130 34" fill="none" xmlns="http://www.w3.org/2000/svg">
<path d="M79.9201 14.2828V24.7178H77.6157V14.2828H79.9201ZM79.9201 10.066V12.4823H77.6157V10.066H79.9201Z" fill="black"/>
<path d="M65.9692 24.7178H64.0581V10.066H66.123V15.2721C66.577 14.6571 67.1262 14.1958 67.7705 13.8882C68.4149 13.566 69.1324 13.4049 69.9232 13.4049C70.6994 13.4049 71.4316 13.5587 72.1199 13.8662C72.8082 14.1738 73.4086 14.5912 73.9212 15.1184C74.4337 15.6456 74.8365 16.2679 75.1294 16.9855C75.4369 17.6885 75.5907 18.4426 75.5907 19.2481C75.5907 20.0535 75.4442 20.8077 75.1513 21.5107C74.8584 22.2136 74.4557 22.8213 73.9432 23.3339C73.4452 23.8465 72.8448 24.2565 72.1419 24.564C71.4536 24.8569 70.714 25.0034 69.9232 25.0034C69.0299 25.0034 68.2611 24.8569 67.6167 24.564C66.987 24.2711 66.4379 23.8025 65.9692 23.1582V24.7178ZM69.8134 15.2721C69.2862 15.2721 68.7956 15.3746 68.3416 15.5797C67.8877 15.7847 67.4849 16.0702 67.1335 16.4364C66.7967 16.7878 66.5331 17.2052 66.3427 17.6885C66.1523 18.1717 66.0571 18.6916 66.0571 19.2481C66.0571 19.7899 66.1523 20.3025 66.3427 20.7858C66.5477 21.2544 66.8186 21.6644 67.1554 22.0159C67.4923 22.3674 67.8877 22.6456 68.3416 22.8506C68.7956 23.041 69.2789 23.1362 69.7914 23.1362C70.304 23.1362 70.7873 23.0337 71.2413 22.8287C71.6952 22.6236 72.0906 22.3454 72.4275 21.9939C72.7643 21.6278 73.0279 21.2105 73.2183 20.7418C73.4233 20.2586 73.5258 19.7533 73.5258 19.2261C73.5258 18.6843 73.4233 18.1717 73.2183 17.6885C73.0279 17.2052 72.7643 16.7878 72.4275 16.4364C72.0906 16.0702 71.6952 15.7847 71.2413 15.5797C70.8019 15.3746 70.326 15.2721 69.8134 15.2721Z" fill="black"/>
<path d="M61.4201 24.718H59.531V23.0046C59.326 23.3268 59.1429 23.5684 58.9818 23.7295C58.8354 23.8906 58.623 24.0517 58.3448 24.2128C57.5101 24.74 56.5289 25.0036 55.4013 25.0036C54.6105 25.0036 53.8709 24.8571 53.1826 24.5642C52.4943 24.2714 51.9012 23.8686 51.4033 23.3561C50.9054 22.8435 50.51 22.2431 50.2171 21.5548C49.9389 20.8519 49.7997 20.0904 49.7997 19.2703C49.7997 18.4355 49.9462 17.6667 50.2391 16.9638C50.532 16.2462 50.9347 15.6311 51.4472 15.1186C51.9598 14.5914 52.5602 14.1813 53.2485 13.8884C53.9515 13.5955 54.713 13.4491 55.5331 13.4491C56.3678 13.4491 57.1513 13.6248 57.8835 13.9763C58.6157 14.3131 59.1649 14.7598 59.531 15.3163V13.7347H61.4201V24.718ZM55.599 23.1364C56.1262 23.1364 56.6167 23.0339 57.0707 22.8289C57.5247 22.6239 57.9201 22.3456 58.2569 21.9941C58.6084 21.6427 58.8793 21.2326 59.0697 20.764C59.2747 20.2954 59.3772 19.7975 59.3772 19.2703C59.3772 18.7284 59.2747 18.2159 59.0697 17.7326C58.8793 17.2493 58.6157 16.832 58.2789 16.4805C57.9421 16.1144 57.5393 15.8288 57.0707 15.6238C56.6167 15.4188 56.1262 15.3163 55.599 15.3163C55.0718 15.3163 54.5812 15.4188 54.1272 15.6238C53.6732 15.8288 53.2778 16.1071 52.941 16.4585C52.6042 16.81 52.3332 17.2274 52.1282 17.7106C51.9378 18.1939 51.8426 18.7065 51.8426 19.2483C51.8426 19.7755 51.9378 20.2807 52.1282 20.764C52.3332 21.2326 52.6042 21.6427 52.941 21.9941C53.2778 22.3456 53.6732 22.6239 54.1272 22.8289C54.5958 23.0339 55.0864 23.1364 55.599 23.1364Z" fill="black"/>
<path d="M46.7733 24.7178H44.6205V12.043H40.9989V10.066H50.3729V12.043H46.7733V24.7178Z" fill="black"/>
<path fill-rule="evenodd" clip-rule="evenodd" d="M80.3385 13.8642V25.136H77.1972V13.8642H80.3385ZM80.3385 9.64734V12.9005H77.1972V9.64734H80.3385ZM79.92 14.2826H77.6156V24.7175H79.92V14.2826ZM79.92 10.0658H77.6156V12.4821H79.92V10.0658Z" fill="black"/>
<path fill-rule="evenodd" clip-rule="evenodd" d="M66.3877 25.136H63.6398V9.64734H66.5415V14.1997C66.8587 13.9233 67.2072 13.6936 67.5869 13.512C68.294 13.1592 69.0754 12.9863 69.9233 12.9863C70.7565 12.9863 71.5471 13.1517 72.2907 13.484C73.0262 13.8126 73.6708 14.2602 74.2213 14.8264C74.7721 15.393 75.203 16.0598 75.5149 16.8223C75.8453 17.5794 76.0092 18.3894 76.0092 19.2478C76.0092 20.1053 75.853 20.9145 75.5376 21.6713C75.2252 22.4212 74.7934 23.0747 74.2412 23.6274C73.7033 24.1806 73.0576 24.6199 72.3097 24.9471L72.3077 24.948L72.3058 24.9488C71.5628 25.265 70.7672 25.4215 69.9233 25.4215C68.9854 25.4215 68.1547 25.2679 67.4437 24.9447L67.4404 24.9432C67.0601 24.7663 66.7094 24.5333 66.3877 24.247V25.136ZM66.3877 23.664C66.2418 23.5095 66.1023 23.3408 65.9693 23.1579V24.7175H64.0582V10.0658H66.1231V15.2719C66.2546 15.0937 66.3941 14.9285 66.5415 14.7761C66.9032 14.4025 67.3129 14.1064 67.7706 13.888C68.415 13.5658 69.1325 13.4047 69.9233 13.4047C70.6995 13.4047 71.4317 13.5585 72.12 13.866C72.8083 14.1735 73.4087 14.5909 73.9213 15.1181C74.4338 15.6453 74.8366 16.2677 75.1294 16.9853C75.437 17.6882 75.5907 18.4424 75.5907 19.2478C75.5907 20.0533 75.4443 20.8075 75.1514 21.5104C74.8585 22.2133 74.4558 22.8211 73.9432 23.3336C73.4453 23.8462 72.8449 24.2562 72.142 24.5638C71.4537 24.8567 70.7141 25.0031 69.9233 25.0031C69.03 25.0031 68.2612 24.8567 67.6168 24.5638C67.1658 24.354 66.7561 24.0541 66.3877 23.664ZM72.8319 20.5811L72.8332 20.5782C73.0162 20.1468 73.1075 19.6972 73.1075 19.2259C73.1075 18.7383 73.0155 18.2815 72.8332 17.8516L72.831 17.8466L72.829 17.8416C72.6573 17.4055 72.4222 17.0352 72.1255 16.7256L72.1225 16.7225L72.1196 16.7194C71.821 16.3948 71.4718 16.1426 71.0691 15.9607L71.0668 15.9597L71.0644 15.9586C70.6836 15.7809 70.2685 15.6903 69.8135 15.6903C69.3422 15.6903 68.9107 15.7816 68.5139 15.9607C68.1096 16.1434 67.7506 16.3975 67.4354 16.7259C67.1388 17.0354 66.9038 17.4056 66.7321 17.8416C66.5623 18.2726 66.4756 18.7401 66.4756 19.2478C66.4756 19.7368 66.5608 20.1947 66.7292 20.625C66.9152 21.0478 67.1582 21.4137 67.4576 21.7261C67.7553 22.0367 68.1046 22.2834 68.5087 22.4667C68.9079 22.6333 69.3342 22.7175 69.7915 22.7175C70.2465 22.7175 70.6709 22.6269 71.0691 22.4471C71.4742 22.2642 71.8242 22.0177 72.1225 21.7072C72.4235 21.3793 72.6594 21.0058 72.8307 20.5841L72.8319 20.5811ZM72.4275 21.9937C72.0907 22.3451 71.6953 22.6234 71.2413 22.8284C70.7874 23.0334 70.3041 23.1359 69.7915 23.1359C69.279 23.1359 68.7957 23.0408 68.3417 22.8504C67.8878 22.6454 67.4924 22.3671 67.1555 22.0156C66.8187 21.6642 66.5478 21.2541 66.3428 20.7855C66.1524 20.3022 66.0572 19.7897 66.0572 19.2478C66.0572 18.6913 66.1524 18.1715 66.3428 17.6882C66.5331 17.2049 66.7967 16.7876 67.1336 16.4361C67.485 16.07 67.8878 15.7844 68.3417 15.5794C68.7957 15.3744 69.2863 15.2719 69.8135 15.2719C70.3261 15.2719 70.802 15.3744 71.2413 15.5794C71.6953 15.7844 72.0907 16.07 72.4275 16.4361C72.7644 16.7876 73.028 17.2049 73.2183 17.6882C73.4234 18.1715 73.5259 18.684 73.5259 19.2259C73.5259 19.7531 73.4234 20.2583 73.2183 20.7416C73.028 21.2102 72.7644 21.6276 72.4275 21.9937Z" fill="black"/>
<path fill-rule="evenodd" clip-rule="evenodd" d="M61.4201 24.7177V13.7344H59.531V15.316C59.4111 15.1338 59.2717 14.9634 59.1126 14.8048C58.7857 14.4788 58.376 14.2026 57.8835 13.976C57.1513 13.6245 56.3678 13.4488 55.533 13.4488C54.713 13.4488 53.9514 13.5953 53.2485 13.8881C52.5602 14.181 51.9598 14.5911 51.4472 15.1183C50.9347 15.6308 50.532 16.2459 50.2391 16.9635C49.9462 17.6664 49.7997 18.4353 49.7997 19.27C49.7997 20.0901 49.9389 20.8516 50.2171 21.5545C50.51 22.2428 50.9054 22.8432 51.4033 23.3558C51.9012 23.8684 52.4943 24.2711 53.1826 24.564C53.8709 24.8569 54.6104 25.0033 55.4012 25.0033C56.5289 25.0033 57.51 24.7397 58.3448 24.2125C58.623 24.0514 58.8354 23.8903 58.9818 23.7292C59.0239 23.6871 59.0675 23.6396 59.1126 23.5865C59.2401 23.4364 59.3795 23.2423 59.531 23.0043V24.7177H61.4201ZM59.1126 24.1849V25.1361H61.8385V13.316H59.1126V14.2423C58.8076 13.9937 58.4561 13.7791 58.0614 13.5973C57.272 13.219 56.4275 13.0304 55.533 13.0304C54.662 13.0304 53.8453 13.1862 53.0876 13.5019L53.0847 13.5031C52.3471 13.817 51.7008 14.2578 51.1493 14.8245C50.596 15.3783 50.1643 16.04 49.8523 16.8039C49.5365 17.5622 49.3813 18.3859 49.3813 19.27C49.3813 20.1383 49.5288 20.9526 49.8281 21.7085L49.83 21.7135L49.8321 21.7184C50.1442 22.4518 50.5677 23.0961 51.1032 23.6473C51.6417 24.2017 52.2817 24.6353 53.0188 24.949C53.7618 25.2652 54.5574 25.4217 55.4012 25.4217C56.5935 25.4217 57.6522 25.1428 58.5614 24.5706C58.7707 24.4489 58.9566 24.321 59.1126 24.1849ZM57.0707 22.8286C56.6167 23.0336 56.1261 23.1361 55.5989 23.1361C55.0864 23.1361 54.5958 23.0336 54.1272 22.8286C53.6732 22.6236 53.2778 22.3453 52.941 21.9939C52.6041 21.6424 52.3332 21.2323 52.1282 20.7637C51.9378 20.2805 51.8426 19.7752 51.8426 19.248C51.8426 18.7062 51.9378 18.1936 52.1282 17.7104C52.3332 17.2271 52.6041 16.8097 52.941 16.4582C53.2778 16.1068 53.6732 15.8285 54.1272 15.6235C54.5812 15.4185 55.0717 15.316 55.5989 15.316C56.1261 15.316 56.6167 15.4185 57.0707 15.6235C57.5393 15.8285 57.9421 16.1141 58.2789 16.4802C58.6157 16.8317 58.8793 17.249 59.0697 17.7323C59.2747 18.2156 59.3772 18.7281 59.3772 19.27C59.3772 19.7972 59.2747 20.2951 59.0697 20.7637C58.8793 21.2323 58.6084 21.6424 58.2569 21.9939C57.9201 22.3453 57.5247 22.6236 57.0707 22.8286ZM52.5155 17.8688C52.702 17.4307 52.9451 17.0586 53.2431 16.7478C53.542 16.4358 53.893 16.1884 54.2994 16.0048C54.6961 15.8257 55.1276 15.7344 55.5989 15.7344C56.0703 15.7344 56.5018 15.8257 56.8985 16.0048L56.9007 16.0059L56.903 16.0068C57.32 16.1893 57.6745 16.4413 57.971 16.7635L57.9738 16.7666L57.9768 16.7697C58.2735 17.0793 58.5086 17.4496 58.6804 17.8857L58.6824 17.8907L58.6845 17.8957C58.8669 18.3256 58.9588 18.7824 58.9588 19.27C58.9588 19.7413 58.8675 20.1819 58.6863 20.596L58.6841 20.6011L58.682 20.6062C58.5123 21.024 58.2723 21.3868 57.9611 21.698L57.9579 21.7011L57.9548 21.7044C57.6559 22.0163 57.3049 22.2637 56.8985 22.4473C56.5018 22.6264 56.0703 22.7177 55.5989 22.7177C55.1448 22.7177 54.7121 22.6274 54.2971 22.4462C53.8917 22.2628 53.5414 22.0157 53.2431 21.7044C52.9436 21.3919 52.7006 21.026 52.5147 20.6031C52.3457 20.1717 52.261 19.7209 52.261 19.248C52.261 18.7583 52.3465 18.2996 52.5155 17.8688Z" fill="black"/>
<path fill-rule="evenodd" clip-rule="evenodd" d="M47.1919 25.136H44.2023V12.4612H40.5807V9.64737H50.7915V12.4612H47.1919V25.136ZM44.6207 12.0428V24.7176H46.7734V12.0428H50.3731V10.0658H40.9991V12.0428H44.6207Z" fill="black"/>
<path fill-rule="evenodd" clip-rule="evenodd" d="M14.9787 0.00604248V9.30758C14.9787 13.9442 20.5846 16.2662 23.8632 12.9876L27.9828 8.86795L25.1289 6.01404L21.0092 10.1337C20.2732 10.8697 19.0147 10.3485 19.0147 9.30758V0.00604248H14.9787ZM33.9896 15.0123H24.7361C20.0885 15.0123 17.7715 20.6409 21.0722 23.9128L25.134 27.9392L27.9754 25.0728L23.9136 21.0464C23.1726 20.3119 23.6928 19.0483 24.7361 19.0483H33.9896V15.0123ZM19.0147 24.6925L19.0147 33.994H14.9787L14.9787 24.6925C14.9787 23.6516 13.7202 23.1303 12.9842 23.8663L8.91766 27.9329L6.06371 25.079L10.1302 21.0124C13.4088 17.7338 19.0147 20.0558 19.0147 24.6925ZM0.00183123 19.0181H9.3033C13.9399 19.0181 16.262 13.4122 12.9834 10.1336L8.86368 6.01384L6.00973 8.86776L10.1294 12.9875C10.8655 13.7235 10.3442 14.982 9.3033 14.982H0.00183105L0.00183123 19.0181Z" fill="white"/>
<path fill-rule="evenodd" clip-rule="evenodd" d="M14.9787 0.00604248V9.30758C14.9787 13.9442 20.5846 16.2662 23.8632 12.9876L27.9828 8.86795L25.1289 6.01404L21.0092 10.1337C20.2732 10.8697 19.0147 10.3485 19.0147 9.30758V0.00604248H14.9787ZM33.9896 15.0123H24.7361C20.0885 15.0123 17.7715 20.6409 21.0722 23.9128L25.134 27.9392L27.9754 25.0728L23.9136 21.0464C23.1726 20.3119 23.6928 19.0483 24.7361 19.0483H33.9896V15.0123ZM19.0147 24.6925L19.0147 33.994H14.9787L14.9787 24.6925C14.9787 23.6516 13.7202 23.1303 12.9842 23.8663L8.91766 27.9329L6.06371 25.079L10.1302 21.0124C13.4088 17.7338 19.0147 20.0558 19.0147 24.6925ZM0.00183123 19.0181H9.3033C13.9399 19.0181 16.262 13.4122 12.9834 10.1336L8.86368 6.01384L6.00973 8.86776L10.1294 12.9875C10.8655 13.7235 10.3442 14.982 9.3033 14.982H0.00183105L0.00183123 19.0181Z" fill="#FF5C01"/>
<mask id="mask0_715_3705" style="mask-type:alpha" maskUnits="userSpaceOnUse" x="0" y="0" width="34" height="34">
<path fill-rule="evenodd" clip-rule="evenodd" d="M14.9768 0.00598145V9.30752C14.9768 13.9442 20.5827 16.2662 23.8613 12.9876L27.981 8.86789L25.127 6.01397L21.0074 10.1337C20.2714 10.8697 19.0129 10.3484 19.0129 9.30752V0.00598145H14.9768ZM33.9878 15.0122H24.7343C20.0867 15.0122 17.7696 20.6408 21.0704 23.9128L25.1322 27.9392L27.9736 25.0727L23.9118 21.0463C23.1708 20.3118 23.6909 19.0483 24.7343 19.0483H33.9878V15.0122ZM19.0129 24.6924L19.0129 33.9939H14.9768L14.9768 24.6924C14.9768 23.6515 13.7184 23.1302 12.9824 23.8663L8.91583 27.9328L6.06188 25.0789L10.1284 21.0124C13.407 17.7337 19.0129 20.0558 19.0129 24.6924ZM0 19.018H9.30147C13.9381 19.018 16.2601 13.4121 12.9816 10.1335L8.86185 6.01378L6.0079 8.8677L10.1276 12.9875C10.8636 13.7235 10.3423 14.9819 9.30147 14.9819H0V19.018Z" fill="white"/>
<path fill-rule="evenodd" clip-rule="evenodd" d="M14.9768 0.00598145V9.30752C14.9768 13.9442 20.5827 16.2662 23.8613 12.9876L27.981 8.86789L25.127 6.01397L21.0074 10.1337C20.2714 10.8697 19.0129 10.3484 19.0129 9.30752V0.00598145H14.9768ZM33.9878 15.0122H24.7343C20.0867 15.0122 17.7696 20.6408 21.0704 23.9128L25.1322 27.9392L27.9736 25.0727L23.9118 21.0463C23.1708 20.3118 23.6909 19.0483 24.7343 19.0483H33.9878V15.0122ZM19.0129 24.6924L19.0129 33.9939H14.9768L14.9768 24.6924C14.9768 23.6515 13.7184 23.1302 12.9824 23.8663L8.91583 27.9328L6.06188 25.0789L10.1284 21.0124C13.407 17.7337 19.0129 20.0558 19.0129 24.6924ZM0 19.018H9.30147C13.9381 19.018 16.2601 13.4121 12.9816 10.1335L8.86185 6.01378L6.0079 8.8677L10.1276 12.9875C10.8636 13.7235 10.3423 14.9819 9.30147 14.9819H0V19.018Z" fill="#FF5C01"/>
</mask>
<g mask="url(#mask0_715_3705)">
<path d="M-14.9501 6.71844C0.152707 10.1491 33.8548 13.5354 47.8411 -0.364952" stroke="#FF8412" stroke-width="6.46529"/>
<path d="M-14.9501 23.5284C0.152707 26.9591 33.8548 30.3454 47.8411 16.445" stroke="#FF8412" stroke-width="7.75835"/>
</g>
<g clip-path="url(#clip0_715_3705)">
<path d="M99.467 15.14V15.76H97V15.14H99.467ZM97.719 14H98.45V18.537C98.45 18.744 98.48 18.899 98.54 19.002C98.602 19.103 98.68 19.172 98.776 19.207C98.873 19.24 98.976 19.257 99.083 19.257C99.163 19.257 99.229 19.252 99.281 19.244L99.405 19.219L99.554 19.876C99.3791 19.9378 99.1944 19.9673 99.009 19.963C98.802 19.963 98.599 19.918 98.401 19.83C98.2043 19.7409 98.0351 19.6007 97.911 19.424C97.783 19.242 97.719 19.012 97.719 18.736V14ZM102.512 20C102.053 20 101.658 19.899 101.325 19.696C100.993 19.4902 100.727 19.1935 100.559 18.841C100.382 18.473 100.293 18.045 100.293 17.558C100.293 17.07 100.382 16.641 100.559 16.268C100.739 15.895 100.989 15.603 101.309 15.395C101.646 15.1801 102.039 15.0702 102.438 15.079C102.685 15.079 102.93 15.119 103.172 15.202C103.414 15.285 103.634 15.419 103.832 15.605C104.03 15.789 104.188 16.033 104.306 16.337C104.424 16.641 104.483 17.014 104.483 17.459V17.769H100.813V17.136H103.739C103.739 16.868 103.685 16.628 103.578 16.417C103.477 16.2114 103.321 16.0384 103.126 15.918C102.919 15.7928 102.68 15.7297 102.438 15.736C102.146 15.736 101.894 15.808 101.681 15.952C101.471 16.095 101.308 16.281 101.195 16.51C101.081 16.74 101.025 16.986 101.025 17.248V17.669C101.025 18.029 101.086 18.334 101.21 18.584C101.336 18.832 101.51 19.021 101.734 19.151C101.957 19.279 102.216 19.343 102.512 19.343C102.704 19.343 102.878 19.316 103.032 19.263C103.184 19.2106 103.322 19.1257 103.438 19.014C103.556 18.8969 103.646 18.7552 103.702 18.599L104.409 18.798C104.334 19.038 104.209 19.248 104.034 19.43C103.858 19.61 103.641 19.75 103.383 19.851C103.125 19.951 102.834 20 102.512 20ZM108.967 16.207L108.31 16.393C108.266 16.2777 108.205 16.1698 108.128 16.073C108.042 15.9621 107.932 15.873 107.805 15.813C107.641 15.7391 107.461 15.7042 107.281 15.711C106.991 15.711 106.747 15.778 106.553 15.912C106.361 16.044 106.265 16.212 106.265 16.417C106.265 16.599 106.331 16.743 106.463 16.848C106.596 16.954 106.803 17.041 107.083 17.112L107.79 17.285C108.215 17.388 108.533 17.546 108.741 17.759C108.95 17.97 109.054 18.242 109.054 18.574C109.054 18.847 108.976 19.091 108.819 19.306C108.651 19.5307 108.427 19.7061 108.168 19.814C107.86 19.9436 107.529 20.007 107.195 20C106.709 20 106.307 19.895 105.989 19.684C105.671 19.474 105.469 19.165 105.385 18.76L106.079 18.587C106.145 18.843 106.27 19.035 106.454 19.163C106.64 19.291 106.883 19.355 107.182 19.355C107.523 19.355 107.794 19.283 107.994 19.138C108.197 18.992 108.298 18.816 108.298 18.612C108.3 18.5343 108.285 18.4572 108.255 18.3855C108.225 18.3138 108.181 18.2493 108.124 18.196C108.009 18.083 107.831 17.998 107.591 17.942L106.798 17.756C106.362 17.653 106.042 17.493 105.838 17.276C105.634 17.0524 105.525 16.7578 105.534 16.455C105.534 16.186 105.609 15.948 105.76 15.742C105.922 15.5282 106.136 15.3603 106.383 15.255C106.647 15.137 106.947 15.079 107.282 15.079C107.752 15.079 108.122 15.182 108.391 15.389C108.661 15.595 108.854 15.868 108.967 16.207ZM112.226 15.14V15.76H109.759V15.14H112.226ZM110.477 14H111.207V18.537C111.207 18.744 111.237 18.899 111.297 19.002C111.36 19.103 111.438 19.172 111.533 19.207C111.631 19.24 111.733 19.257 111.84 19.257C111.92 19.257 111.987 19.252 112.038 19.244L112.162 19.219L112.312 19.876C112.137 19.9378 111.952 19.9673 111.767 19.963C111.557 19.9621 111.349 19.9168 111.158 19.83C110.961 19.7409 110.792 19.6007 110.668 19.424C110.541 19.242 110.476 19.012 110.476 18.736L110.477 14ZM114.057 17.037V19.901H113.326V15.14H114.032V15.883H114.094C114.204 15.644 114.38 15.4418 114.602 15.301C114.83 15.151 115.123 15.078 115.482 15.078C115.805 15.078 116.087 15.144 116.329 15.276C116.57 15.406 116.759 15.604 116.893 15.871C117.027 16.135 117.094 16.471 117.094 16.875V19.9H116.363V16.926C116.363 16.552 116.266 16.26 116.072 16.052C115.877 15.841 115.611 15.736 115.272 15.736C115.039 15.736 114.83 15.786 114.646 15.887C114.463 15.9903 114.313 16.1445 114.216 16.331C114.11 16.525 114.057 16.761 114.057 17.037ZM120.427 20C119.968 20 119.572 19.899 119.24 19.696C118.908 19.4903 118.642 19.1935 118.474 18.841C118.297 18.473 118.208 18.045 118.208 17.558C118.208 17.07 118.297 16.641 118.474 16.268C118.654 15.895 118.904 15.603 119.224 15.395C119.56 15.1802 119.953 15.0702 120.352 15.079C120.6 15.079 120.845 15.119 121.087 15.202C121.328 15.285 121.549 15.419 121.747 15.605C121.945 15.789 122.103 16.033 122.221 16.337C122.339 16.641 122.398 17.014 122.398 17.459V17.769H118.728V17.136H121.654C121.654 16.868 121.6 16.628 121.493 16.417C121.392 16.2112 121.235 16.0382 121.04 15.918C120.833 15.7928 120.594 15.7297 120.352 15.736C120.061 15.736 119.809 15.808 119.596 15.952C119.386 16.095 119.223 16.281 119.11 16.51C118.997 16.7394 118.938 16.9921 118.94 17.248V17.669C118.94 18.029 119.001 18.334 119.125 18.584C119.251 18.832 119.425 19.021 119.649 19.151C119.872 19.279 120.131 19.343 120.427 19.343C120.619 19.343 120.792 19.316 120.947 19.263C121.104 19.207 121.24 19.124 121.353 19.014C121.471 18.8969 121.561 18.7552 121.617 18.599L122.323 18.798C122.249 19.038 122.124 19.248 121.948 19.43C121.773 19.61 121.556 19.75 121.298 19.851C121.019 19.9541 120.724 20.0047 120.427 20ZM125.58 15.14V15.76H123.114V15.14H125.58ZM123.834 14H124.565V18.537C124.565 18.744 124.595 18.899 124.655 19.002C124.717 19.103 124.795 19.172 124.891 19.207C124.988 19.24 125.09 19.257 125.197 19.257C125.277 19.257 125.344 19.252 125.396 19.244L125.52 19.219L125.668 19.876C125.493 19.938 125.308 19.9674 125.122 19.963C124.916 19.963 124.714 19.918 124.515 19.83C124.318 19.7409 124.149 19.6007 124.025 19.424C123.898 19.242 123.834 19.012 123.834 18.736V14Z" fill="#FF5C01"/>
<path d="M125.667 10.2H97C94.9013 10.2 93.2 11.9013 93.2 14V20C93.2 22.0987 94.9013 23.8 97 23.8H125.667C127.766 23.8 129.467 22.0987 129.467 20V14C129.467 11.9013 127.766 10.2 125.667 10.2Z" stroke="#FF5C01" stroke-width="0.4"/>
</g>
<defs>
<clipPath id="clip0_715_3705">
<rect width="37" height="14" fill="white" transform="translate(93 10)"/>
</clipPath>
</defs>
</svg>
