<svg width="131" height="34" viewBox="0 0 131 34" fill="none" xmlns="http://www.w3.org/2000/svg">
<path d="M80.6459 14.2819V24.7206H78.3407V14.2819H80.6459ZM80.6459 10.0636V12.4808H78.3407V10.0636H80.6459Z" fill="white"/>
<path d="M66.6901 24.7206H64.7783V10.0636H66.8439V15.2715C67.2981 14.6563 67.8474 14.1948 68.492 13.8872C69.1366 13.5649 69.8544 13.4037 70.6455 13.4037C71.4219 13.4037 72.1544 13.5575 72.8429 13.8652C73.5315 14.1728 74.1321 14.5903 74.6449 15.1177C75.1576 15.6451 75.5605 16.2677 75.8534 16.9856C76.1611 17.6887 76.3149 18.4432 76.3149 19.2489C76.3149 20.0547 76.1684 20.8091 75.8754 21.5123C75.5824 22.2155 75.1796 22.8234 74.6668 23.3362C74.1687 23.8489 73.5681 24.2591 72.8649 24.5667C72.1764 24.8597 71.4366 25.0062 70.6455 25.0062C69.7519 25.0062 68.9828 24.8597 68.3382 24.5667C67.7082 24.2737 67.1589 23.805 66.6901 23.1604V24.7206ZM70.5356 15.2715C70.0082 15.2715 69.5175 15.3741 69.0633 15.5792C68.6092 15.7843 68.2063 16.07 67.8547 16.4362C67.5178 16.7878 67.2541 17.2053 67.0637 17.6887C66.8732 18.1722 66.778 18.6922 66.778 19.2489C66.778 19.791 66.8732 20.3037 67.0637 20.7871C67.2688 21.2559 67.5398 21.6661 67.8767 22.0177C68.2137 22.3693 68.6092 22.6476 69.0633 22.8527C69.5175 23.0432 70.0009 23.1384 70.5137 23.1384C71.0264 23.1384 71.5098 23.0359 71.964 22.8308C72.4181 22.6257 72.8136 22.3473 73.1506 21.9957C73.4875 21.6295 73.7512 21.212 73.9417 20.7432C74.1468 20.2597 74.2493 19.7543 74.2493 19.2269C74.2493 18.6849 74.1468 18.1722 73.9417 17.6887C73.7512 17.2053 73.4875 16.7878 73.1506 16.4362C72.8136 16.07 72.4181 15.7843 71.964 15.5792C71.5245 15.3741 71.0484 15.2715 70.5356 15.2715Z" fill="white"/>
<path d="M62.1394 24.7207H60.2496V23.0067C60.0445 23.329 59.8614 23.5707 59.7002 23.7319C59.5537 23.893 59.3413 24.0542 59.063 24.2153C58.2279 24.7427 57.2464 25.0064 56.1184 25.0064C55.3273 25.0064 54.5875 24.8599 53.899 24.5669C53.2104 24.2739 52.6171 23.8711 52.119 23.3583C51.6209 22.8456 51.2254 22.245 50.9324 21.5564C50.6541 20.8532 50.5149 20.0915 50.5149 19.2711C50.5149 18.436 50.6614 17.6669 50.9544 16.9638C51.2474 16.2459 51.6502 15.6306 52.163 15.1179C52.6757 14.5905 53.2763 14.1803 53.9649 13.8873C54.6681 13.5943 55.4298 13.4478 56.2502 13.4478C57.0853 13.4478 57.869 13.6236 58.6015 13.9752C59.334 14.3122 59.8833 14.759 60.2496 15.3157V13.7335H62.1394V24.7207ZM56.3161 23.1386C56.8435 23.1386 57.3343 23.036 57.7884 22.8309C58.2426 22.6258 58.6381 22.3475 58.9751 21.9959C59.3267 21.6443 59.5977 21.2341 59.7881 20.7653C59.9932 20.2966 60.0958 19.7985 60.0958 19.2711C60.0958 18.729 59.9932 18.2163 59.7881 17.7329C59.5977 17.2494 59.334 16.8319 58.997 16.4803C58.6601 16.1141 58.2572 15.8284 57.7884 15.6233C57.3343 15.4182 56.8435 15.3157 56.3161 15.3157C55.7888 15.3157 55.298 15.4182 54.8439 15.6233C54.3897 15.8284 53.9942 16.1068 53.6572 16.4583C53.3203 16.8099 53.0493 17.2275 52.8442 17.7109C52.6537 18.1943 52.5585 18.7071 52.5585 19.2491C52.5585 19.7765 52.6537 20.2819 52.8442 20.7653C53.0493 21.2341 53.3203 21.6443 53.6572 21.9959C53.9942 22.3475 54.3897 22.6258 54.8439 22.8309C55.3126 23.036 55.8034 23.1386 56.3161 23.1386Z" fill="white"/>
<path d="M47.4873 24.7206H45.3338V12.0413H41.7109V10.0636H51.0883V12.0413H47.4873V24.7206Z" fill="white"/>
<path fill-rule="evenodd" clip-rule="evenodd" d="M81.0645 13.8631V25.1388H77.9221V13.8631H81.0645ZM81.0645 9.64474V12.8991H77.9221V9.64474H81.0645ZM80.6459 14.2816H78.3407V24.7203H80.6459V14.2816ZM80.6459 10.0633H78.3407V12.4805H80.6459V10.0633Z" fill="white"/>
<path fill-rule="evenodd" clip-rule="evenodd" d="M67.1088 25.1388H64.3599V9.64474H67.2626V14.1987C67.5799 13.9222 67.9285 13.6924 68.3084 13.5108C69.0157 13.1578 69.7974 12.9849 70.6456 12.9849C71.4791 12.9849 72.2699 13.1504 73.0138 13.4827C73.7495 13.8115 74.3944 14.2592 74.9451 14.8257C75.4961 15.3924 75.9271 16.0594 76.2391 16.8223C76.5696 17.5796 76.7336 18.3899 76.7336 19.2486C76.7336 20.1064 76.5773 20.9159 76.2619 21.673C75.9493 22.4231 75.5173 23.0768 74.965 23.6297C74.4268 24.1831 73.781 24.6226 73.0328 24.9499L73.0309 24.9508L73.0289 24.9516C72.2856 25.2679 71.4897 25.4245 70.6456 25.4245C69.7074 25.4245 68.8763 25.2708 68.1651 24.9475L68.1618 24.946C67.7814 24.7691 67.4305 24.536 67.1088 24.2496V25.1388ZM67.1088 23.6664C66.9628 23.5118 66.8232 23.343 66.6902 23.1601V24.7203H64.7784V10.0633H66.844V15.2713C66.9756 15.093 67.1151 14.9277 67.2626 14.7753C67.6244 14.4016 68.0342 14.1054 68.4921 13.8869C69.1367 13.5646 69.8545 13.4034 70.6456 13.4034C71.422 13.4034 72.1545 13.5572 72.843 13.8649C73.5316 14.1725 74.1322 14.59 74.645 15.1174C75.1577 15.6448 75.5606 16.2674 75.8536 16.9853C76.1612 17.6884 76.315 18.4429 76.315 19.2486C76.315 20.0544 76.1685 20.8088 75.8755 21.512C75.5825 22.2152 75.1797 22.8231 74.6669 23.3359C74.1688 23.8486 73.5682 24.2588 72.865 24.5664C72.1765 24.8594 71.4367 25.0059 70.6456 25.0059C69.752 25.0059 68.9829 24.8594 68.3383 24.5664C67.8871 24.3566 67.4773 24.0566 67.1088 23.6664ZM73.5552 20.5824L73.5565 20.5794C73.7395 20.1479 73.8309 19.6981 73.8309 19.2267C73.8309 18.7389 73.7389 18.282 73.5565 17.8519L73.5543 17.8469L73.5523 17.8419C73.3805 17.4056 73.1453 17.0352 72.8485 16.7255L72.8455 16.7224L72.8427 16.7193C72.544 16.3946 72.1946 16.1423 71.7918 15.9604L71.7894 15.9593L71.7871 15.9582C71.4062 15.7804 70.9909 15.6898 70.5357 15.6898C70.0642 15.6898 69.6326 15.7811 69.2357 15.9604C68.8312 16.1431 68.4721 16.3973 68.1568 16.7258C67.8601 17.0354 67.625 17.4057 67.4532 17.8419C67.2833 18.273 67.1967 18.7407 67.1967 19.2486C67.1967 19.7377 67.2819 20.1958 67.4504 20.6262C67.6364 21.0492 67.8795 21.4153 68.179 21.7278C68.4768 22.0385 68.8262 22.2853 69.2305 22.4686C69.6298 22.6352 70.0563 22.7195 70.5138 22.7195C70.9689 22.7195 71.3934 22.6289 71.7918 22.449C72.197 22.266 72.5472 22.0195 72.8456 21.7089C73.1466 21.3809 73.3826 21.0072 73.554 20.5854L73.5552 20.5824ZM73.1507 21.9954C72.8138 22.347 72.4182 22.6254 71.9641 22.8305C71.5099 23.0356 71.0265 23.1381 70.5138 23.1381C70.001 23.1381 69.5176 23.0429 69.0634 22.8524C68.6093 22.6473 68.2138 22.369 67.8768 22.0174C67.5399 21.6658 67.2689 21.2556 67.0638 20.7868C66.8733 20.3034 66.7781 19.7907 66.7781 19.2486C66.7781 18.6919 66.8733 18.1719 67.0638 17.6884C67.2542 17.205 67.5179 16.7875 67.8548 16.4359C68.2064 16.0697 68.6093 15.784 69.0634 15.5789C69.5176 15.3738 70.0083 15.2713 70.5357 15.2713C71.0485 15.2713 71.5246 15.3738 71.9641 15.5789C72.4182 15.784 72.8138 16.0697 73.1507 16.4359C73.4876 16.7875 73.7513 17.205 73.9418 17.6884C74.1469 18.1719 74.2494 18.6846 74.2494 19.2267C74.2494 19.754 74.1469 20.2595 73.9418 20.7429C73.7513 21.2117 73.4876 21.6292 73.1507 21.9954Z" fill="white"/>
<path fill-rule="evenodd" clip-rule="evenodd" d="M62.1394 24.7205V13.7333H60.2496V15.3154C60.1297 15.1332 59.9901 14.9627 59.831 14.804C59.504 14.478 59.0942 14.2016 58.6015 13.975C57.869 13.6234 57.0852 13.4476 56.2502 13.4476C55.4298 13.4476 54.668 13.5941 53.9649 13.8871C53.2763 14.1801 52.6757 14.5903 52.163 15.1176C51.6502 15.6304 51.2474 16.2457 50.9544 16.9635C50.6614 17.6667 50.5149 18.4358 50.5149 19.2708C50.5149 20.0912 50.654 20.853 50.9324 21.5562C51.2254 22.2447 51.6209 22.8453 52.119 23.3581C52.6171 23.8708 53.2104 24.2737 53.8989 24.5667C54.5875 24.8597 55.3273 25.0061 56.1184 25.0061C57.2464 25.0061 58.2279 24.7425 59.0629 24.2151C59.3413 24.0539 59.5537 23.8928 59.7002 23.7316C59.7423 23.6895 59.7859 23.6419 59.831 23.5888C59.9585 23.4387 60.098 23.2446 60.2496 23.0065V24.7205H62.1394ZM59.831 24.1875V25.139H62.5579V13.3147H59.831V14.2414C59.5259 13.9926 59.1743 13.778 58.7795 13.5961C57.9898 13.2176 57.145 13.029 56.2502 13.029C55.3789 13.029 54.5619 13.1849 53.8039 13.5007L53.801 13.5019C53.0631 13.8159 52.4166 14.2568 51.8649 14.8238C51.3115 15.3778 50.8796 16.0397 50.5674 16.8039C50.2516 17.5624 50.0963 18.3864 50.0963 19.2708C50.0963 20.1394 50.2439 20.954 50.5432 21.7102L50.5452 21.7152L50.5472 21.72C50.8595 22.4538 51.2831 23.0983 51.8188 23.6497C52.3575 24.2042 52.9977 24.6381 53.7351 24.9518C54.4783 25.2681 55.2742 25.4247 56.1184 25.4247C57.311 25.4247 58.3701 25.1457 59.2796 24.5733C59.489 24.4516 59.6749 24.3236 59.831 24.1875ZM57.7884 22.8307C57.3343 23.0358 56.8435 23.1383 56.3161 23.1383C55.8034 23.1383 55.3126 23.0358 54.8438 22.8307C54.3897 22.6256 53.9942 22.3472 53.6572 21.9956C53.3203 21.6441 53.0493 21.2339 52.8442 20.7651C52.6537 20.2816 52.5585 19.7762 52.5585 19.2488C52.5585 18.7068 52.6537 18.1941 52.8442 17.7106C53.0493 17.2272 53.3203 16.8097 53.6572 16.4581C53.9942 16.1065 54.3897 15.8281 54.8438 15.6231C55.298 15.418 55.7887 15.3154 56.3161 15.3154C56.8435 15.3154 57.3343 15.418 57.7884 15.6231C58.2572 15.8281 58.6601 16.1138 58.997 16.4801C59.334 16.8316 59.5977 17.2492 59.7881 17.7326C59.9932 18.216 60.0957 18.7288 60.0957 19.2708C60.0957 19.7982 59.9932 20.2963 59.7881 20.7651C59.5977 21.2339 59.3266 21.6441 58.975 21.9956C58.6381 22.3472 58.2426 22.6256 57.7884 22.8307ZM53.2316 17.8691C53.4182 17.4309 53.6614 17.0587 53.9594 16.7477C54.2585 16.4357 54.6096 16.1881 55.0161 16.0045C55.413 15.8253 55.8446 15.734 56.3161 15.734C56.7876 15.734 57.2193 15.8253 57.6161 16.0045L57.6184 16.0055L57.6207 16.0065C58.0378 16.189 58.3925 16.4412 58.689 16.7634L58.6919 16.7666L58.6948 16.7697C58.9916 17.0794 59.2268 17.4498 59.3987 17.886L59.4007 17.8911L59.4028 17.8961C59.5852 18.3261 59.6772 18.7831 59.6772 19.2708C59.6772 19.7423 59.5859 20.1831 59.4046 20.5973L59.4024 20.6024L59.4003 20.6075C59.2305 21.0255 58.9904 21.3883 58.6791 21.6997L58.6759 21.7028L58.6728 21.706C58.3738 22.0181 58.0227 22.2656 57.6161 22.4492C57.2193 22.6284 56.7876 22.7198 56.3161 22.7198C55.8618 22.7198 55.4289 22.6294 55.0138 22.4482C54.6083 22.2647 54.2579 22.0175 53.9594 21.706C53.6599 21.3935 53.4168 21.0275 53.2308 20.6044C53.0617 20.1728 52.9771 19.7219 52.9771 19.2488C52.9771 18.7589 53.0626 18.3001 53.2316 17.8691Z" fill="white"/>
<path fill-rule="evenodd" clip-rule="evenodd" d="M47.9061 25.1389H44.9155V12.4596H41.2926V9.64478H51.5071V12.4596H47.9061V25.1389ZM45.3341 12.041V24.7203H47.4876V12.041H51.0885V10.0633H41.7112V12.041H45.3341Z" fill="white"/>
<path fill-rule="evenodd" clip-rule="evenodd" d="M15.6816 6.10352e-05V9.30487C15.6816 13.9431 21.2894 16.266 24.5692 12.9862L28.6903 8.8651L25.8353 6.01017L21.7142 10.1313C20.978 10.8676 19.7191 10.3461 19.7191 9.30487V6.10352e-05H15.6816ZM34.6992 15.0116H25.4425C20.7932 15.0116 18.4754 20.6422 21.7773 23.9153L25.8405 27.9431L28.683 25.0757L24.6197 21.0478C23.8784 20.3131 24.3988 19.0491 25.4425 19.0491L34.6992 19.0491V15.0116ZM19.7191 24.6952L19.7191 34H15.6816L15.6816 24.6952C15.6816 23.6539 14.4226 23.1325 13.6864 23.8688L9.61841 27.9368L6.76346 25.0818L10.8314 21.0138C14.1112 17.7341 19.7191 20.0569 19.7191 24.6952ZM0.699463 19.0188H10.0042C14.6425 19.0188 16.9653 13.4109 13.6856 10.1312L9.56444 6.00998L6.70948 8.86491L10.8307 12.9861C11.5669 13.7224 11.0455 14.9813 10.0042 14.9813H0.699463L0.699463 19.0188Z" fill="white"/>
<path fill-rule="evenodd" clip-rule="evenodd" d="M15.6816 6.10352e-05V9.30487C15.6816 13.9431 21.2894 16.266 24.5692 12.9862L28.6903 8.8651L25.8353 6.01017L21.7142 10.1313C20.978 10.8676 19.7191 10.3461 19.7191 9.30487V6.10352e-05H15.6816ZM34.6992 15.0116H25.4425C20.7932 15.0116 18.4754 20.6422 21.7773 23.9153L25.8405 27.9431L28.683 25.0757L24.6197 21.0478C23.8784 20.3131 24.3988 19.0491 25.4425 19.0491L34.6992 19.0491V15.0116ZM19.7191 24.6952L19.7191 34H15.6816L15.6816 24.6952C15.6816 23.6539 14.4226 23.1325 13.6864 23.8688L9.61841 27.9368L6.76346 25.0818L10.8314 21.0138C14.1112 17.7341 19.7191 20.0569 19.7191 24.6952ZM0.699463 19.0188H10.0042C14.6425 19.0188 16.9653 13.4109 13.6856 10.1312L9.56444 6.00998L6.70948 8.86491L10.8307 12.9861C11.5669 13.7224 11.0455 14.9813 10.0042 14.9813H0.699463L0.699463 19.0188Z" fill="#FF5C01"/>
<mask id="mask0_715_3706" style="mask-type:alpha" maskUnits="userSpaceOnUse" x="0" y="0" width="35" height="34">
<path fill-rule="evenodd" clip-rule="evenodd" d="M15.6797 0V9.30481C15.6797 13.9431 21.2876 16.2659 24.5674 12.9862L28.6884 8.86504L25.8335 6.01011L21.7124 10.1312C20.9761 10.8675 19.7172 10.3461 19.7172 9.30481V0H15.6797ZM34.6974 15.0115H25.4406C20.7914 15.0115 18.4735 20.6421 21.7754 23.9152L25.8387 27.943L28.6811 25.0756L24.6178 21.0478C23.8766 20.313 24.3969 19.049 25.4406 19.049L34.6974 19.049V15.0115ZM19.7172 24.6951L19.7172 33.9999H15.6797L15.6797 24.6951C15.6797 23.6539 14.4208 23.1324 13.6845 23.8687L9.61658 27.9367L6.76163 25.0818L10.8296 21.0138C14.1093 17.734 19.7172 20.0569 19.7172 24.6951ZM0.697632 19.0187H10.0024C14.6406 19.0187 16.9635 13.4109 13.6838 10.1311L9.5626 6.00992L6.70765 8.86484L10.8288 12.9861C11.5651 13.7223 11.0436 14.9812 10.0024 14.9812H0.697632V19.0187Z" fill="white"/>
<path fill-rule="evenodd" clip-rule="evenodd" d="M15.6797 0V9.30481C15.6797 13.9431 21.2876 16.2659 24.5674 12.9862L28.6884 8.86504L25.8335 6.01011L21.7124 10.1312C20.9761 10.8675 19.7172 10.3461 19.7172 9.30481V0H15.6797ZM34.6974 15.0115H25.4406C20.7914 15.0115 18.4735 20.6421 21.7754 23.9152L25.8387 27.943L28.6811 25.0756L24.6178 21.0478C23.8766 20.313 24.3969 19.049 25.4406 19.049L34.6974 19.049V15.0115ZM19.7172 24.6951L19.7172 33.9999H15.6797L15.6797 24.6951C15.6797 23.6539 14.4208 23.1324 13.6845 23.8687L9.61658 27.9367L6.76163 25.0818L10.8296 21.0138C14.1093 17.734 19.7172 20.0569 19.7172 24.6951ZM0.697632 19.0187H10.0024C14.6406 19.0187 16.9635 13.4109 13.6838 10.1311L9.5626 6.00992L6.70765 8.86484L10.8288 12.9861C11.5651 13.7223 11.0436 14.9812 10.0024 14.9812H0.697632V19.0187Z" fill="#FF5C01"/>
</mask>
<g mask="url(#mask0_715_3706)">
<path d="M-14.2577 6.71484C0.850417 10.1467 34.5644 13.5342 48.5556 -0.371052" stroke="#FF8412" stroke-width="6.46757"/>
<path d="M-14.2577 23.5307C0.850417 26.9626 34.5644 30.3501 48.5556 16.4448" stroke="#FF8412" stroke-width="7.76109"/>
</g>
<g clip-path="url(#clip0_715_3706)">
<path d="M100.165 15.14V15.76H97.6976V15.14H100.165ZM98.4166 14H99.1476V18.537C99.1476 18.744 99.1776 18.899 99.2376 19.002C99.2996 19.103 99.3776 19.172 99.4736 19.207C99.5706 19.24 99.6736 19.257 99.7806 19.257C99.8606 19.257 99.9266 19.252 99.9786 19.244L100.103 19.219L100.252 19.876C100.077 19.9378 99.8921 19.9673 99.7066 19.963C99.4996 19.963 99.2966 19.918 99.0986 19.83C98.9019 19.7409 98.7327 19.6007 98.6086 19.424C98.4806 19.242 98.4166 19.012 98.4166 18.736V14ZM103.21 20C102.751 20 102.356 19.899 102.023 19.696C101.691 19.4902 101.425 19.1935 101.257 18.841C101.08 18.473 100.991 18.045 100.991 17.558C100.991 17.07 101.08 16.641 101.257 16.268C101.437 15.895 101.687 15.603 102.007 15.395C102.343 15.1801 102.736 15.0702 103.136 15.079C103.383 15.079 103.628 15.119 103.87 15.202C104.112 15.285 104.332 15.419 104.53 15.605C104.728 15.789 104.886 16.033 105.004 16.337C105.122 16.641 105.181 17.014 105.181 17.459V17.769H101.511V17.136H104.437C104.437 16.868 104.383 16.628 104.276 16.417C104.175 16.2114 104.018 16.0384 103.824 15.918C103.616 15.7928 103.378 15.7297 103.136 15.736C102.844 15.736 102.592 15.808 102.379 15.952C102.169 16.095 102.006 16.281 101.893 16.51C101.779 16.74 101.723 16.986 101.723 17.248V17.669C101.723 18.029 101.784 18.334 101.908 18.584C102.034 18.832 102.208 19.021 102.432 19.151C102.655 19.279 102.914 19.343 103.21 19.343C103.402 19.343 103.576 19.316 103.73 19.263C103.882 19.2106 104.02 19.1257 104.136 19.014C104.253 18.8969 104.343 18.7552 104.4 18.599L105.107 18.798C105.032 19.038 104.907 19.248 104.732 19.43C104.556 19.61 104.339 19.75 104.081 19.851C103.823 19.951 103.532 20 103.21 20ZM109.665 16.207L109.008 16.393C108.964 16.2777 108.902 16.1698 108.826 16.073C108.74 15.9621 108.629 15.873 108.503 15.813C108.338 15.7391 108.159 15.7042 107.979 15.711C107.689 15.711 107.445 15.778 107.251 15.912C107.059 16.044 106.963 16.212 106.963 16.417C106.963 16.599 107.029 16.743 107.161 16.848C107.294 16.954 107.501 17.041 107.781 17.112L108.488 17.285C108.913 17.388 109.231 17.546 109.439 17.759C109.648 17.97 109.752 18.242 109.752 18.574C109.752 18.847 109.674 19.091 109.517 19.306C109.349 19.5307 109.124 19.7061 108.866 19.814C108.558 19.9436 108.226 20.007 107.893 20C107.407 20 107.005 19.895 106.687 19.684C106.369 19.474 106.167 19.165 106.083 18.76L106.777 18.587C106.843 18.843 106.968 19.035 107.152 19.163C107.338 19.291 107.581 19.355 107.88 19.355C108.221 19.355 108.492 19.283 108.692 19.138C108.895 18.992 108.996 18.816 108.996 18.612C108.997 18.5343 108.983 18.4572 108.953 18.3855C108.923 18.3138 108.878 18.2493 108.822 18.196C108.707 18.083 108.529 17.998 108.289 17.942L107.496 17.756C107.06 17.653 106.74 17.493 106.536 17.276C106.331 17.0524 106.222 16.7578 106.232 16.455C106.232 16.186 106.307 15.948 106.458 15.742C106.619 15.5282 106.834 15.3603 107.081 15.255C107.345 15.137 107.645 15.079 107.98 15.079C108.45 15.079 108.82 15.182 109.089 15.389C109.359 15.595 109.552 15.868 109.665 16.207ZM112.924 15.14V15.76H110.457V15.14H112.924ZM111.175 14H111.905V18.537C111.905 18.744 111.935 18.899 111.995 19.002C112.058 19.103 112.136 19.172 112.231 19.207C112.329 19.24 112.431 19.257 112.538 19.257C112.618 19.257 112.685 19.252 112.736 19.244L112.86 19.219L113.01 19.876C112.835 19.9378 112.65 19.9673 112.465 19.963C112.255 19.9621 112.047 19.9168 111.856 19.83C111.659 19.7409 111.49 19.6007 111.366 19.424C111.239 19.242 111.174 19.012 111.174 18.736L111.175 14ZM114.755 17.037V19.901H114.024V15.14H114.73V15.883H114.792C114.901 15.644 115.078 15.4418 115.3 15.301C115.528 15.151 115.821 15.078 116.18 15.078C116.503 15.078 116.785 15.144 117.027 15.276C117.268 15.406 117.457 15.604 117.591 15.871C117.725 16.135 117.792 16.471 117.792 16.875V19.9H117.061V16.926C117.061 16.552 116.964 16.26 116.77 16.052C116.575 15.841 116.309 15.736 115.97 15.736C115.737 15.736 115.528 15.786 115.344 15.887C115.16 15.9903 115.011 16.1445 114.914 16.331C114.808 16.525 114.755 16.761 114.755 17.037ZM121.125 20C120.666 20 120.27 19.899 119.938 19.696C119.606 19.4903 119.34 19.1935 119.172 18.841C118.995 18.473 118.906 18.045 118.906 17.558C118.906 17.07 118.995 16.641 119.172 16.268C119.352 15.895 119.602 15.603 119.922 15.395C120.258 15.1802 120.651 15.0702 121.05 15.079C121.298 15.079 121.543 15.119 121.785 15.202C122.026 15.285 122.247 15.419 122.445 15.605C122.643 15.789 122.801 16.033 122.919 16.337C123.037 16.641 123.096 17.014 123.096 17.459V17.769H119.426V17.136H122.352C122.352 16.868 122.298 16.628 122.191 16.417C122.09 16.2112 121.933 16.0382 121.738 15.918C121.53 15.7928 121.292 15.7297 121.05 15.736C120.759 15.736 120.507 15.808 120.294 15.952C120.084 16.095 119.921 16.281 119.808 16.51C119.694 16.7394 119.636 16.9921 119.638 17.248V17.669C119.638 18.029 119.699 18.334 119.823 18.584C119.949 18.832 120.123 19.021 120.347 19.151C120.57 19.279 120.829 19.343 121.125 19.343C121.317 19.343 121.49 19.316 121.645 19.263C121.802 19.207 121.938 19.124 122.051 19.014C122.168 18.8969 122.258 18.7552 122.315 18.599L123.021 18.798C122.947 19.038 122.822 19.248 122.646 19.43C122.471 19.61 122.254 19.75 121.996 19.851C121.717 19.9541 121.422 20.0047 121.125 20ZM126.278 15.14V15.76H123.812V15.14H126.278ZM124.532 14H125.263V18.537C125.263 18.744 125.293 18.899 125.353 19.002C125.415 19.103 125.493 19.172 125.589 19.207C125.686 19.24 125.788 19.257 125.895 19.257C125.975 19.257 126.042 19.252 126.094 19.244L126.218 19.219L126.366 19.876C126.19 19.938 126.005 19.9674 125.82 19.963C125.614 19.963 125.412 19.918 125.213 19.83C125.016 19.7409 124.847 19.6007 124.723 19.424C124.596 19.242 124.532 19.012 124.532 18.736V14Z" fill="#FF5C01"/>
<path d="M126.365 10.2H97.6976C95.5989 10.2 93.8976 11.9013 93.8976 14V20C93.8976 22.0987 95.5989 23.8 97.6976 23.8H126.365C128.463 23.8 130.165 22.0987 130.165 20V14C130.165 11.9013 128.463 10.2 126.365 10.2Z" stroke="#FF5C01" stroke-width="0.4"/>
</g>
<defs>
<clipPath id="clip0_715_3706">
<rect width="37" height="14" fill="white" transform="translate(93.6976 10)"/>
</clipPath>
</defs>
</svg>
