<svg width="142" height="34" viewBox="0 0 142 34" fill="none" xmlns="http://www.w3.org/2000/svg">
<path d="M79.9201 14.2829V24.7178H77.6157V14.2829H79.9201ZM79.9201 10.066V12.4824H77.6157V10.066H79.9201Z" fill="white"/>
<path d="M65.9692 24.7178H64.0581V10.066H66.123V15.2722C66.577 14.6571 67.1261 14.1958 67.7705 13.8882C68.4148 13.5661 69.1324 13.405 69.9232 13.405C70.6994 13.405 71.4316 13.5587 72.1199 13.8663C72.8082 14.1738 73.4086 14.5912 73.9212 15.1184C74.4337 15.6456 74.8364 16.268 75.1293 16.9856C75.4369 17.6885 75.5906 18.4427 75.5906 19.2481C75.5906 20.0536 75.4442 20.8078 75.1513 21.5107C74.8584 22.2136 74.4557 22.8214 73.9431 23.3339C73.4452 23.8465 72.8448 24.2565 72.1419 24.5641C71.4536 24.857 70.714 25.0034 69.9232 25.0034C69.0299 25.0034 68.2611 24.857 67.6167 24.5641C66.987 24.2712 66.4378 23.8026 65.9692 23.1582V24.7178ZM69.8134 15.2722C69.2862 15.2722 68.7956 15.3747 68.3416 15.5797C67.8876 15.7847 67.4849 16.0703 67.1334 16.4364C66.7966 16.7879 66.533 17.2052 66.3426 17.6885C66.1523 18.1718 66.0571 18.6916 66.0571 19.2481C66.0571 19.79 66.1523 20.3025 66.3426 20.7858C66.5477 21.2544 66.8186 21.6645 67.1554 22.0159C67.4922 22.3674 67.8876 22.6456 68.3416 22.8507C68.7956 23.041 69.2789 23.1362 69.7914 23.1362C70.304 23.1362 70.7872 23.0337 71.2412 22.8287C71.6952 22.6237 72.0906 22.3454 72.4274 21.994C72.7642 21.6278 73.0278 21.2105 73.2182 20.7419C73.4232 20.2586 73.5258 19.7534 73.5258 19.2262C73.5258 18.6843 73.4232 18.1718 73.2182 17.6885C73.0278 17.2052 72.7642 16.7879 72.4274 16.4364C72.0906 16.0703 71.6952 15.7847 71.2412 15.5797C70.8019 15.3747 70.3259 15.2722 69.8134 15.2722Z" fill="white"/>
<path d="M61.4201 24.718H59.531V23.0046C59.326 23.3268 59.1429 23.5684 58.9818 23.7295C58.8354 23.8906 58.623 24.0517 58.3448 24.2128C57.5101 24.74 56.5289 25.0036 55.4013 25.0036C54.6105 25.0036 53.8709 24.8571 53.1826 24.5642C52.4943 24.2714 51.9012 23.8686 51.4033 23.3561C50.9054 22.8435 50.51 22.2431 50.2171 21.5548C49.9389 20.8519 49.7997 20.0904 49.7997 19.2703C49.7997 18.4355 49.9462 17.6667 50.2391 16.9638C50.532 16.2462 50.9347 15.6311 51.4472 15.1186C51.9598 14.5914 52.5602 14.1813 53.2485 13.8884C53.9515 13.5955 54.713 13.4491 55.5331 13.4491C56.3678 13.4491 57.1513 13.6248 57.8835 13.9763C58.6157 14.3131 59.1649 14.7598 59.531 15.3163V13.7347H61.4201V24.718ZM55.599 23.1364C56.1262 23.1364 56.6167 23.0339 57.0707 22.8289C57.5247 22.6239 57.9201 22.3456 58.2569 21.9941C58.6084 21.6427 58.8793 21.2326 59.0697 20.764C59.2747 20.2954 59.3772 19.7975 59.3772 19.2703C59.3772 18.7284 59.2747 18.2159 59.0697 17.7326C58.8793 17.2493 58.6157 16.832 58.2789 16.4805C57.9421 16.1144 57.5393 15.8288 57.0707 15.6238C56.6167 15.4188 56.1262 15.3163 55.599 15.3163C55.0718 15.3163 54.5812 15.4188 54.1272 15.6238C53.6732 15.8288 53.2778 16.1071 52.941 16.4585C52.6042 16.81 52.3332 17.2274 52.1282 17.7106C51.9378 18.1939 51.8426 18.7065 51.8426 19.2483C51.8426 19.7755 51.9378 20.2807 52.1282 20.764C52.3332 21.2326 52.6042 21.6427 52.941 21.9941C53.2778 22.3456 53.6732 22.6239 54.1272 22.8289C54.5958 23.0339 55.0864 23.1364 55.599 23.1364Z" fill="white"/>
<path d="M46.7733 24.7178H44.6205V12.043H40.9989V10.066H50.3729V12.043H46.7733V24.7178Z" fill="white"/>
<path fill-rule="evenodd" clip-rule="evenodd" d="M80.3384 13.8642V25.136H77.1972V13.8642H80.3384ZM80.3384 9.64734V12.9005H77.1972V9.64734H80.3384ZM79.92 14.2826H77.6156V24.7175H79.92V14.2826ZM79.92 10.0658H77.6156V12.4821H79.92V10.0658Z" fill="white"/>
<path fill-rule="evenodd" clip-rule="evenodd" d="M66.3878 25.136H63.6398V9.64734H66.5415V14.1997C66.8587 13.9233 67.2072 13.6936 67.5869 13.512C68.294 13.1592 69.0754 12.9863 69.9234 12.9863C70.7565 12.9863 71.5471 13.1517 72.2907 13.484C73.0262 13.8126 73.6708 14.2602 74.2213 14.8264C74.7721 15.393 75.203 16.0598 75.5149 16.8223C75.8453 17.5794 76.0092 18.3894 76.0092 19.2478C76.0092 20.1053 75.853 20.9145 75.5377 21.6713C75.2252 22.4212 74.7934 23.0747 74.2412 23.6274C73.7033 24.1806 73.0576 24.6199 72.3097 24.9471L72.3078 24.948L72.3058 24.9488C71.5628 25.265 70.7672 25.4215 69.9234 25.4215C68.9855 25.4215 68.1547 25.2679 67.4437 24.9447L67.4404 24.9432C67.0601 24.7663 66.7094 24.5333 66.3878 24.247V25.136ZM66.3878 23.664C66.2418 23.5095 66.1023 23.3408 65.9693 23.1579V24.7175H64.0582V10.0658H66.1231V15.2719C66.2546 15.0937 66.3941 14.9285 66.5415 14.7761C66.9032 14.4025 67.3129 14.1064 67.7706 13.888C68.415 13.5658 69.1326 13.4047 69.9234 13.4047C70.6995 13.4047 71.4317 13.5585 72.12 13.866C72.8083 14.1735 73.4087 14.5909 73.9213 15.1181C74.4339 15.6453 74.8366 16.2677 75.1295 16.9853C75.437 17.6882 75.5908 18.4424 75.5908 19.2478C75.5908 20.0533 75.4443 20.8075 75.1514 21.5104C74.8585 22.2133 74.4558 22.8211 73.9433 23.3336C73.4454 23.8462 72.8449 24.2562 72.142 24.5638C71.4537 24.8567 70.7142 25.0031 69.9234 25.0031C69.03 25.0031 68.2612 24.8567 67.6169 24.5638C67.1658 24.354 66.7561 24.0541 66.3878 23.664ZM72.8319 20.5811L72.8332 20.5782C73.0162 20.1468 73.1075 19.6972 73.1075 19.2259C73.1075 18.7383 73.0156 18.2815 72.8332 17.8516L72.8311 17.8466L72.8291 17.8416C72.6573 17.4055 72.4222 17.0352 72.1255 16.7256L72.1225 16.7225L72.1196 16.7194C71.821 16.3948 71.4718 16.1426 71.0691 15.9607L71.0668 15.9597L71.0644 15.9586C70.6836 15.7809 70.2685 15.6903 69.8135 15.6903C69.3422 15.6903 68.9107 15.7816 68.514 15.9607C68.1096 16.1434 67.7506 16.3975 67.4354 16.7259C67.1388 17.0354 66.9038 17.4056 66.7321 17.8416C66.5623 18.2726 66.4756 18.7401 66.4756 19.2478C66.4756 19.7368 66.5608 20.1947 66.7293 20.625C66.9152 21.0478 67.1582 21.4137 67.4576 21.7261C67.7553 22.0367 68.1046 22.2834 68.5088 22.4667C68.9079 22.6333 69.3342 22.7175 69.7916 22.7175C70.2465 22.7175 70.6709 22.6269 71.0691 22.4471C71.4742 22.2642 71.8242 22.0177 72.1225 21.7072C72.4235 21.3793 72.6594 21.0058 72.8307 20.5841L72.8319 20.5811ZM72.4276 21.9937C72.0907 22.3451 71.6953 22.6234 71.2414 22.8284C70.7874 23.0334 70.3041 23.1359 69.7916 23.1359C69.279 23.1359 68.7957 23.0408 68.3418 22.8504C67.8878 22.6454 67.4924 22.3671 67.1556 22.0156C66.8187 21.6642 66.5478 21.2541 66.3428 20.7855C66.1524 20.3022 66.0572 19.7897 66.0572 19.2478C66.0572 18.6913 66.1524 18.1715 66.3428 17.6882C66.5332 17.2049 66.7968 16.7876 67.1336 16.4361C67.485 16.07 67.8878 15.7844 68.3418 15.5794C68.7957 15.3744 69.2863 15.2719 69.8135 15.2719C70.3261 15.2719 70.802 15.3744 71.2414 15.5794C71.6953 15.7844 72.0907 16.07 72.4276 16.4361C72.7644 16.7876 73.028 17.2049 73.2184 17.6882C73.4234 18.1715 73.5259 18.684 73.5259 19.2259C73.5259 19.7531 73.4234 20.2583 73.2184 20.7416C73.028 21.2102 72.7644 21.6276 72.4276 21.9937Z" fill="white"/>
<path fill-rule="evenodd" clip-rule="evenodd" d="M61.4201 24.7177V13.7344H59.531V15.316C59.4112 15.1338 59.2717 14.9634 59.1126 14.8048C58.7857 14.4788 58.376 14.2026 57.8835 13.976C57.1513 13.6245 56.3678 13.4488 55.5331 13.4488C54.713 13.4488 53.9515 13.5953 53.2485 13.8881C52.5602 14.181 51.9598 14.5911 51.4473 15.1183C50.9347 15.6308 50.532 16.2459 50.2391 16.9635C49.9462 17.6664 49.7998 18.4353 49.7998 19.27C49.7998 20.0901 49.9389 20.8516 50.2171 21.5545C50.51 22.2428 50.9054 22.8432 51.4033 23.3558C51.9012 23.8684 52.4943 24.2711 53.1826 24.564C53.8709 24.8569 54.6105 25.0033 55.4013 25.0033C56.5289 25.0033 57.5101 24.7397 58.3448 24.2125C58.6231 24.0514 58.8354 23.8903 58.9818 23.7292C59.0239 23.6871 59.0675 23.6396 59.1126 23.5865C59.2401 23.4364 59.3796 23.2423 59.531 23.0043V24.7177H61.4201ZM59.1126 24.1849V25.1361H61.8386V13.316H59.1126V14.2423C58.8076 13.9937 58.4561 13.7791 58.0615 13.5973C57.272 13.219 56.4275 13.0304 55.5331 13.0304C54.662 13.0304 53.8454 13.1862 53.0876 13.5019L53.0847 13.5031C52.3471 13.817 51.7009 14.2578 51.1493 14.8245C50.5961 15.3783 50.1643 16.04 49.8523 16.8039C49.5366 17.5622 49.3813 18.3859 49.3813 19.27C49.3813 20.1383 49.5288 20.9526 49.8281 21.7085L49.83 21.7135L49.8321 21.7184C50.1442 22.4518 50.5677 23.0961 51.1032 23.6473C51.6417 24.2017 52.2818 24.6353 53.0188 24.949C53.7618 25.2652 54.5574 25.4217 55.4013 25.4217C56.5935 25.4217 57.6522 25.1428 58.5614 24.5706C58.7707 24.4489 58.9566 24.321 59.1126 24.1849ZM57.0707 22.8286C56.6168 23.0336 56.1262 23.1361 55.599 23.1361C55.0864 23.1361 54.5958 23.0336 54.1272 22.8286C53.6732 22.6236 53.2778 22.3453 52.941 21.9939C52.6042 21.6424 52.3333 21.2323 52.1282 20.7637C51.9379 20.2805 51.8427 19.7752 51.8427 19.248C51.8427 18.7062 51.9379 18.1936 52.1282 17.7104C52.3333 17.2271 52.6042 16.8097 52.941 16.4582C53.2778 16.1068 53.6732 15.8285 54.1272 15.6235C54.5812 15.4185 55.0718 15.316 55.599 15.316C56.1262 15.316 56.6168 15.4185 57.0707 15.6235C57.5394 15.8285 57.9421 16.1141 58.2789 16.4802C58.6157 16.8317 58.8793 17.249 59.0697 17.7323C59.2747 18.2156 59.3772 18.7281 59.3772 19.27C59.3772 19.7972 59.2747 20.2951 59.0697 20.7637C58.8793 21.2323 58.6084 21.6424 58.2569 21.9939C57.9201 22.3453 57.5247 22.6236 57.0707 22.8286ZM52.5155 17.8688C52.702 17.4307 52.9452 17.0586 53.2431 16.7478C53.542 16.4358 53.893 16.1884 54.2994 16.0048C54.6961 15.8257 55.1276 15.7344 55.599 15.7344C56.0703 15.7344 56.5018 15.8257 56.8985 16.0048L56.9008 16.0059L56.903 16.0068C57.32 16.1893 57.6746 16.4413 57.971 16.7635L57.9739 16.7666L57.9768 16.7697C58.2735 17.0793 58.5086 17.4496 58.6804 17.8857L58.6824 17.8907L58.6845 17.8957C58.8669 18.3256 58.9588 18.7824 58.9588 19.27C58.9588 19.7413 58.8675 20.1819 58.6864 20.596L58.6842 20.6011L58.6821 20.6062C58.5123 21.024 58.2723 21.3868 57.9611 21.698L57.9579 21.7011L57.9549 21.7044C57.6559 22.0163 57.3049 22.2637 56.8985 22.4473C56.5018 22.6264 56.0703 22.7177 55.599 22.7177C55.1448 22.7177 54.7121 22.6274 54.2971 22.4462C53.8917 22.2628 53.5415 22.0157 53.2431 21.7044C52.9437 21.3919 52.7006 21.026 52.5147 20.6031C52.3457 20.1717 52.2611 19.7209 52.2611 19.248C52.2611 18.7583 52.3465 18.2996 52.5155 17.8688Z" fill="white"/>
<path fill-rule="evenodd" clip-rule="evenodd" d="M47.1919 25.136H44.2023V12.4612H40.5807V9.64734H50.7916V12.4612H47.1919V25.136ZM44.6207 12.0428V24.7175H46.7735V12.0428H50.3731V10.0658H40.9991V12.0428H44.6207Z" fill="white"/>
<path fill-rule="evenodd" clip-rule="evenodd" d="M14.9787 0.00604248V9.30758C14.9787 13.9442 20.5846 16.2662 23.8632 12.9876L27.9828 8.86795L25.1289 6.01404L21.0092 10.1337C20.2732 10.8697 19.0147 10.3485 19.0147 9.30758V0.00604248H14.9787ZM33.9896 15.0123H24.7361C20.0885 15.0123 17.7715 20.6409 21.0722 23.9128L25.1341 27.9392L27.9755 25.0728L23.9136 21.0464C23.1726 20.3119 23.6928 19.0483 24.7361 19.0483H33.9896V15.0123ZM19.0147 24.6925L19.0147 33.994H14.9787L14.9787 24.6925C14.9787 23.6516 13.7202 23.1303 12.9842 23.8663L8.91766 27.9329L6.06371 25.079L10.1302 21.0124C13.4088 17.7338 19.0147 20.0558 19.0147 24.6925ZM0.00183123 19.0181H9.3033C13.9399 19.0181 16.262 13.4122 12.9834 10.1336L8.86368 6.01384L6.00973 8.86776L10.1294 12.9875C10.8655 13.7235 10.3442 14.982 9.3033 14.982H0.00183105L0.00183123 19.0181Z" fill="white"/>
<path fill-rule="evenodd" clip-rule="evenodd" d="M14.9787 0.00604248V9.30758C14.9787 13.9442 20.5846 16.2662 23.8632 12.9876L27.9828 8.86795L25.1289 6.01404L21.0092 10.1337C20.2732 10.8697 19.0147 10.3485 19.0147 9.30758V0.00604248H14.9787ZM33.9896 15.0123H24.7361C20.0885 15.0123 17.7715 20.6409 21.0722 23.9128L25.1341 27.9392L27.9755 25.0728L23.9136 21.0464C23.1726 20.3119 23.6928 19.0483 24.7361 19.0483H33.9896V15.0123ZM19.0147 24.6925L19.0147 33.994H14.9787L14.9787 24.6925C14.9787 23.6516 13.7202 23.1303 12.9842 23.8663L8.91766 27.9329L6.06371 25.079L10.1302 21.0124C13.4088 17.7338 19.0147 20.0558 19.0147 24.6925ZM0.00183123 19.0181H9.3033C13.9399 19.0181 16.262 13.4122 12.9834 10.1336L8.86368 6.01384L6.00973 8.86776L10.1294 12.9875C10.8655 13.7235 10.3442 14.982 9.3033 14.982H0.00183105L0.00183123 19.0181Z" fill="#FF5C01"/>
<mask id="mask0_4287_199" style="mask-type:alpha" maskUnits="userSpaceOnUse" x="0" y="0" width="34" height="34">
<path fill-rule="evenodd" clip-rule="evenodd" d="M14.9768 0.00598145V9.30752C14.9768 13.9442 20.5827 16.2662 23.8613 12.9876L27.981 8.86789L25.127 6.01397L21.0074 10.1337C20.2714 10.8697 19.0129 10.3484 19.0129 9.30752V0.00598145H14.9768ZM33.9878 15.0122H24.7343C20.0867 15.0122 17.7696 20.6408 21.0704 23.9128L25.1322 27.9392L27.9736 25.0727L23.9118 21.0463C23.1708 20.3118 23.6909 19.0483 24.7343 19.0483H33.9878V15.0122ZM19.0129 24.6924L19.0129 33.9939H14.9768L14.9768 24.6924C14.9768 23.6515 13.7184 23.1302 12.9824 23.8663L8.91583 27.9328L6.06188 25.0789L10.1284 21.0124C13.407 17.7337 19.0129 20.0558 19.0129 24.6924ZM0 19.018H9.30147C13.9381 19.018 16.2601 13.4121 12.9816 10.1335L8.86185 6.01378L6.0079 8.8677L10.1276 12.9875C10.8636 13.7235 10.3423 14.9819 9.30147 14.9819H0V19.018Z" fill="white"/>
<path fill-rule="evenodd" clip-rule="evenodd" d="M14.9768 0.00598145V9.30752C14.9768 13.9442 20.5827 16.2662 23.8613 12.9876L27.981 8.86789L25.127 6.01397L21.0074 10.1337C20.2714 10.8697 19.0129 10.3484 19.0129 9.30752V0.00598145H14.9768ZM33.9878 15.0122H24.7343C20.0867 15.0122 17.7696 20.6408 21.0704 23.9128L25.1322 27.9392L27.9736 25.0727L23.9118 21.0463C23.1708 20.3118 23.6909 19.0483 24.7343 19.0483H33.9878V15.0122ZM19.0129 24.6924L19.0129 33.9939H14.9768L14.9768 24.6924C14.9768 23.6515 13.7184 23.1302 12.9824 23.8663L8.91583 27.9328L6.06188 25.0789L10.1284 21.0124C13.407 17.7337 19.0129 20.0558 19.0129 24.6924ZM0 19.018H9.30147C13.9381 19.018 16.2601 13.4121 12.9816 10.1335L8.86185 6.01378L6.0079 8.8677L10.1276 12.9875C10.8636 13.7235 10.3423 14.9819 9.30147 14.9819H0V19.018Z" fill="#FF5C01"/>
</mask>
<g mask="url(#mask0_4287_199)">
<path d="M-14.9501 6.71844C0.152707 10.1491 33.8548 13.5354 47.8411 -0.364952" stroke="#FF8412" stroke-width="6.46529"/>
<path d="M-14.9501 23.5284C0.152707 26.9591 33.8548 30.3454 47.8411 16.445" stroke="#FF8412" stroke-width="7.75835"/>
</g>
<rect x="92.3385" y="10.2" width="49" height="14" rx="4" stroke="#FF5C01" stroke-width="0.4"/>
<path d="M99.0068 15.5636V16.1673H96.6041V15.5636H99.0068ZM97.3044 14.4529H98.0168V18.8719C98.0168 19.0731 98.0459 19.224 98.1043 19.3247C98.1647 19.4233 98.2411 19.4897 98.3337 19.5239C98.4283 19.5561 98.5279 19.5722 98.6325 19.5722C98.711 19.5722 98.7754 19.5681 98.8257 19.5601C98.876 19.55 98.9163 19.542 98.9465 19.5359L99.0913 20.1759C99.043 20.194 98.9756 20.2121 98.8891 20.2302C98.8026 20.2503 98.6929 20.2604 98.5601 20.2604C98.3589 20.2604 98.1617 20.2171 97.9685 20.1306C97.7773 20.0441 97.6183 19.9123 97.4916 19.7352C97.3668 19.5581 97.3044 19.3347 97.3044 19.0651V14.4529ZM101.972 20.2966C101.526 20.2966 101.14 20.198 100.816 20.0008C100.494 19.8016 100.246 19.5239 100.071 19.1677C99.8978 18.8095 99.8112 18.393 99.8112 17.9181C99.8112 17.4431 99.8978 17.0246 100.071 16.6624C100.246 16.2981 100.489 16.0144 100.801 15.8112C101.115 15.6059 101.481 15.5033 101.9 15.5033C102.142 15.5033 102.38 15.5435 102.615 15.624C102.851 15.7045 103.065 15.8353 103.258 16.0164C103.452 16.1955 103.605 16.433 103.72 16.7288C103.835 17.0246 103.892 17.3888 103.892 17.8215V18.1233H100.318V17.5075H103.168C103.168 17.2459 103.115 17.0125 103.011 16.8073C102.908 16.602 102.761 16.44 102.57 16.3213C102.381 16.2026 102.158 16.1432 101.9 16.1432C101.616 16.1432 101.371 16.2136 101.164 16.3545C100.958 16.4933 100.8 16.6744 100.69 16.8978C100.579 17.1212 100.524 17.3606 100.524 17.6162V18.0267C100.524 18.3769 100.584 18.6737 100.705 18.9172C100.827 19.1586 100.998 19.3428 101.215 19.4695C101.432 19.5943 101.685 19.6567 101.972 19.6567C102.16 19.6567 102.329 19.6305 102.48 19.5782C102.633 19.5239 102.764 19.4434 102.875 19.3367C102.986 19.2281 103.071 19.0932 103.132 18.9323L103.82 19.1254C103.747 19.3589 103.626 19.5641 103.455 19.7412C103.283 19.9163 103.072 20.0531 102.821 20.1517C102.569 20.2483 102.286 20.2966 101.972 20.2966ZM108.26 16.602L107.62 16.7831C107.58 16.6765 107.52 16.5728 107.442 16.4722C107.365 16.3696 107.261 16.2851 107.128 16.2187C106.995 16.1522 106.825 16.119 106.618 16.119C106.334 16.119 106.098 16.1844 105.909 16.3152C105.721 16.444 105.628 16.608 105.628 16.8073C105.628 16.9843 105.692 17.1242 105.821 17.2268C105.95 17.3295 106.151 17.415 106.425 17.4834L107.113 17.6524C107.527 17.753 107.836 17.907 108.04 18.1143C108.243 18.3195 108.344 18.5841 108.344 18.9081C108.344 19.1737 108.268 19.4112 108.115 19.6205C107.964 19.8297 107.753 19.9948 107.481 20.1155C107.21 20.2362 106.894 20.2966 106.533 20.2966C106.06 20.2966 105.669 20.194 105.359 19.9887C105.049 19.7835 104.853 19.4836 104.771 19.0892L105.447 18.9202C105.511 19.1697 105.633 19.3569 105.812 19.4816C105.993 19.6064 106.23 19.6688 106.521 19.6688C106.853 19.6688 107.117 19.5983 107.312 19.4575C107.509 19.3146 107.608 19.1435 107.608 18.9443C107.608 18.7833 107.552 18.6485 107.439 18.5399C107.326 18.4292 107.153 18.3467 106.92 18.2923L106.147 18.1112C105.722 18.0106 105.411 17.8547 105.211 17.6434C105.014 17.4301 104.915 17.1634 104.915 16.8435C104.915 16.5819 104.989 16.3505 105.136 16.1492C105.285 15.948 105.487 15.79 105.743 15.6753C106 15.5606 106.292 15.5033 106.618 15.5033C107.077 15.5033 107.437 15.6039 107.698 15.8051C107.962 16.0064 108.149 16.272 108.26 16.602ZM111.433 15.5636V16.1673H109.03V15.5636H111.433ZM109.731 14.4529H110.443V18.8719C110.443 19.0731 110.472 19.224 110.531 19.3247C110.591 19.4233 110.667 19.4897 110.76 19.5239C110.855 19.5561 110.954 19.5722 111.059 19.5722C111.137 19.5722 111.202 19.5681 111.252 19.5601C111.302 19.55 111.343 19.542 111.373 19.5359L111.518 20.1759C111.469 20.194 111.402 20.2121 111.315 20.2302C111.229 20.2503 111.119 20.2604 110.986 20.2604C110.785 20.2604 110.588 20.2171 110.395 20.1306C110.204 20.0441 110.045 19.9123 109.918 19.7352C109.793 19.5581 109.731 19.3347 109.731 19.0651V14.4529ZM113.217 17.4109V20.2H112.505V15.5636H113.193V16.2881H113.253C113.362 16.0526 113.527 15.8635 113.748 15.7206C113.97 15.5757 114.255 15.5033 114.606 15.5033C114.919 15.5033 115.194 15.5677 115.43 15.6965C115.665 15.8232 115.848 16.0164 115.979 16.276C116.11 16.5336 116.175 16.8596 116.175 17.254V20.2H115.463V17.3023C115.463 16.9381 115.368 16.6543 115.179 16.4511C114.99 16.2458 114.73 16.1432 114.4 16.1432C114.173 16.1432 113.97 16.1925 113.791 16.2911C113.613 16.3897 113.474 16.5336 113.371 16.7227C113.268 16.9119 113.217 17.1413 113.217 17.4109ZM119.421 20.2966C118.974 20.2966 118.589 20.198 118.265 20.0008C117.943 19.8016 117.694 19.5239 117.519 19.1677C117.346 18.8095 117.259 18.393 117.259 17.9181C117.259 17.4431 117.346 17.0246 117.519 16.6624C117.694 16.2981 117.938 16.0144 118.25 15.8112C118.563 15.6059 118.93 15.5033 119.348 15.5033C119.59 15.5033 119.828 15.5435 120.064 15.624C120.299 15.7045 120.513 15.8353 120.707 16.0164C120.9 16.1955 121.054 16.433 121.168 16.7288C121.283 17.0246 121.34 17.3888 121.34 17.8215V18.1233H117.767V17.5075H120.616C120.616 17.2459 120.564 17.0125 120.459 16.8073C120.356 16.602 120.21 16.44 120.018 16.3213C119.829 16.2026 119.606 16.1432 119.348 16.1432C119.065 16.1432 118.819 16.2136 118.612 16.3545C118.407 16.4933 118.249 16.6744 118.138 16.8978C118.027 17.1212 117.972 17.3606 117.972 17.6162V18.0267C117.972 18.3769 118.032 18.6737 118.153 18.9172C118.276 19.1586 118.446 19.3428 118.663 19.4695C118.88 19.5943 119.133 19.6567 119.421 19.6567C119.608 19.6567 119.777 19.6305 119.928 19.5782C120.081 19.5239 120.213 19.4434 120.323 19.3367C120.434 19.2281 120.519 19.0932 120.58 18.9323L121.268 19.1254C121.196 19.3589 121.074 19.5641 120.903 19.7412C120.732 19.9163 120.52 20.0531 120.269 20.1517C120.017 20.2483 119.735 20.2966 119.421 20.2966ZM124.44 15.5636V16.1673H122.038V15.5636H124.44ZM122.738 14.4529H123.45V18.8719C123.45 19.0731 123.48 19.224 123.538 19.3247C123.598 19.4233 123.675 19.4897 123.767 19.5239C123.862 19.5561 123.961 19.5722 124.066 19.5722C124.145 19.5722 124.209 19.5681 124.259 19.5601C124.31 19.55 124.35 19.542 124.38 19.5359L124.525 20.1759C124.477 20.194 124.409 20.2121 124.323 20.2302C124.236 20.2503 124.126 20.2604 123.994 20.2604C123.792 20.2604 123.595 20.2171 123.402 20.1306C123.211 20.0441 123.052 19.9123 122.925 19.7352C122.8 19.5581 122.738 19.3347 122.738 19.0651V14.4529ZM131.694 15.5636L129.979 20.2H129.255L127.54 15.5636H128.313L129.593 19.2583H129.641L130.921 15.5636H131.694ZM132.622 20.2V19.6567L134.662 17.423C134.902 17.1614 135.099 16.934 135.254 16.7409C135.409 16.5457 135.524 16.3625 135.598 16.1915C135.675 16.0184 135.713 15.8373 135.713 15.6482C135.713 15.4308 135.661 15.2427 135.556 15.0837C135.453 14.9247 135.312 14.802 135.133 14.7155C134.954 14.6289 134.753 14.5857 134.53 14.5857C134.292 14.5857 134.085 14.635 133.908 14.7336C133.733 14.8302 133.597 14.966 133.5 15.1411C133.406 15.3161 133.358 15.5214 133.358 15.7568H132.646C132.646 15.3946 132.73 15.0767 132.897 14.803C133.064 14.5293 133.291 14.316 133.579 14.1631C133.869 14.0101 134.194 13.9337 134.554 13.9337C134.916 13.9337 135.237 14.0101 135.517 14.1631C135.796 14.316 136.016 14.5223 136.175 14.7819C136.334 15.0415 136.413 15.3302 136.413 15.6482C136.413 15.8756 136.372 16.0979 136.289 16.3152C136.209 16.5306 136.068 16.771 135.867 17.0367C135.668 17.3003 135.391 17.6222 135.037 18.0026L133.648 19.4877V19.5359H136.522V20.2H132.622Z" fill="#FF5C01"/>
</svg>
