<svg width="32" height="32" viewBox="0 0 32 32" fill="none" xmlns="http://www.w3.org/2000/svg">
<g id="Frame 1">
<g id="Group 1533209717">
<path id="Vector" d="M19.5234 8L12.7633 13.0006L14.0237 10.0527L19.5234 8Z" fill="#E17726" stroke="#E17726" stroke-width="0.128617" stroke-linecap="round" stroke-linejoin="round"/>
<path id="Vector_2" d="M3.93505 8L10.6334 13.0418L9.43473 10.0579L3.93505 8ZM17.09 19.591L15.2894 22.3383L19.1428 23.3981L20.2437 19.6527L17.09 19.591ZM3.21994 19.6527L4.31576 23.3981L8.15885 22.3383L6.36849 19.591L3.21994 19.6527Z" fill="#E27625" stroke="#E27625" stroke-width="0.128617" stroke-linecap="round" stroke-linejoin="round"/>
<path id="Vector_3" d="M7.95306 14.9505L6.88297 16.566L10.69 16.7409L10.5666 12.6406L7.95306 14.9557V14.9505ZM15.5055 14.9557L12.8508 12.5891L12.7634 16.7409L16.5704 16.566L15.5055 14.9557ZM8.15885 22.3383L10.4688 21.2271L8.48297 19.6836L8.15885 22.3383ZM12.9949 21.2219L15.2894 22.3383L14.9807 19.6785L12.9949 21.2219Z" fill="#E27625" stroke="#E27625" stroke-width="0.128617" stroke-linecap="round" stroke-linejoin="round"/>
<path id="Vector_4" d="M15.2893 22.3382L12.9947 21.227L13.1799 22.719L13.1594 23.3517L15.2893 22.3382ZM8.15872 22.3382L10.2989 23.3517L10.2835 22.719L10.4687 21.227L8.15872 22.3382Z" fill="#D5BFB2" stroke="#D5BFB2" stroke-width="0.128617" stroke-linecap="round" stroke-linejoin="round"/>
<path id="Vector_5" d="M10.335 18.6908L8.43149 18.1352L9.7794 17.5178L10.3402 18.6908H10.335ZM13.1183 18.6908L13.6842 17.5127L15.0373 18.1301L13.1183 18.696V18.6908Z" fill="#233447" stroke="#233447" stroke-width="0.128617" stroke-linecap="round" stroke-linejoin="round"/>
<path id="Vector_6" d="M8.15882 22.3383L8.49323 19.5911L6.36847 19.6528L8.15882 22.3383ZM14.9653 19.5911L15.2894 22.3383L17.09 19.6528L14.9653 19.5911ZM16.5755 16.566L12.7685 16.7409L13.1183 18.6959L13.6842 17.5126L15.0373 18.13L16.5755 16.566ZM8.43149 18.1351L9.7794 17.5177L10.3402 18.6907L10.6952 16.7358L6.88808 16.566L8.43149 18.1351Z" fill="#CC6228" stroke="#CC6228" stroke-width="0.128617" stroke-linecap="round" stroke-linejoin="round"/>
<path id="Vector_7" d="M6.88809 16.566L8.48295 19.6785L8.4315 18.1351L6.88809 16.566ZM15.0373 18.1351L14.9756 19.6785L16.5704 16.566L15.0373 18.1351ZM10.6952 16.7409L10.335 18.6959L10.7878 21.0007L10.8907 17.9602L10.6952 16.7409ZM12.7633 16.7409L12.5781 17.955L12.6707 21.0007L13.1183 18.6907L12.7633 16.7358V16.7409Z" fill="#E27525" stroke="#E27525" stroke-width="0.128617" stroke-linecap="round" stroke-linejoin="round"/>
<path id="Vector_8" d="M13.1182 18.6907L12.6706 21.0007L12.9948 21.227L14.9755 19.6836L15.0372 18.1351L13.1182 18.6907ZM8.43141 18.1351L8.48286 19.6785L10.4687 21.2219L10.7877 21.0007L10.3401 18.6907L8.42627 18.1351H8.43141Z" fill="#F5841F" stroke="#F5841F" stroke-width="0.128617" stroke-linecap="round" stroke-linejoin="round"/>
<path id="Vector_9" d="M13.1645 23.3518L13.1799 22.719L13.005 22.5749H10.4533L10.2835 22.719L10.2989 23.3518L8.15872 22.3383L8.90985 22.9556L10.4275 24H13.0256L14.5484 22.9505L15.2893 22.3383L13.1594 23.3518H13.1645Z" fill="#C0AC9D" stroke="#C0AC9D" stroke-width="0.128617" stroke-linecap="round" stroke-linejoin="round"/>
<path id="Vector_10" d="M12.9948 21.222L12.6707 21.0007H10.7877L10.4688 21.2271L10.2836 22.7191L10.4533 22.575H13.0051L13.18 22.7191L12.9948 21.2271V21.222Z" fill="#161616" stroke="#161616" stroke-width="0.128617" stroke-linecap="round" stroke-linejoin="round"/>
<path id="Vector_11" d="M19.8116 13.3248L20.3775 10.5723L19.5235 8L12.9897 12.836L15.5055 14.9505L19.0553 15.9846L19.8373 15.074L19.4977 14.827L20.0379 14.3331L19.6264 14.0141L20.1666 13.6026L19.8064 13.3248H19.8116ZM3.08102 10.5672L3.65723 13.3248L3.28681 13.5974L3.83729 14.009L3.42572 14.3331L3.96077 14.827L3.62122 15.074L4.40321 15.9846L7.95305 14.9556L10.4688 12.8309L3.93504 8L3.08102 10.5672Z" fill="#763E1A" stroke="#763E1A" stroke-width="0.128617" stroke-linecap="round" stroke-linejoin="round"/>
<path id="Vector_12" d="M19.0553 15.9846L15.5055 14.9557L16.5756 16.566L14.9807 19.6785L17.09 19.6528H20.2437L19.0553 15.9846ZM7.95306 14.9505L4.40322 15.9846L3.21994 19.6528H6.37364L8.48296 19.6785L6.88811 16.566L7.9582 14.9505H7.95306ZM12.7634 16.7409L12.9949 12.8309L14.0238 10.0528H9.43473L10.4637 12.8309L10.6952 16.7409L10.7826 17.9653V21.0007H12.6707L12.681 17.9653L12.7634 16.7409Z" fill="#F5841F" stroke="#F5841F" stroke-width="0.128617" stroke-linecap="round" stroke-linejoin="round"/>
</g>
</g>
</svg>
