<svg width="480" height="168" viewBox="0 0 480 168" fill="none" xmlns="http://www.w3.org/2000/svg">
<g clip-path="url(#clip0_599_5636)">
<rect width="787.059" height="168" rx="24" fill="white" fill-opacity="0.04"/>
<path opacity="0.3" d="M460.245 -336.17L320.963 50.4851C316.53 62.7902 329.188 74.3118 341.023 68.7451L630.304 -67.3173" stroke="url(#paint0_linear_599_5636)" stroke-width="0.94714"/>
<path opacity="0.2" d="M460.245 -336.17L320.963 50.485C316.531 62.7901 329.188 74.3116 341.023 68.7449L630.304 -67.3174" stroke="url(#paint1_linear_599_5636)" stroke-width="0.94714"/>
<path opacity="0.6" d="M157.657 503.83L296.94 117.175C301.372 104.87 288.715 93.3483 276.879 98.915L-10.6161 234.138" stroke="url(#paint2_linear_599_5636)" stroke-width="0.94714"/>
<path d="M-109.664 -66.0588L276.783 73.1484C289.117 77.5915 300.647 64.8688 295.016 53.0299L158.445 -234.054" stroke="url(#paint3_linear_599_5636)" stroke-opacity="0.5" stroke-width="0.94714"/>
<path d="M276.447 72.4917L-110 -66.7156L158.109 -234.711L294.68 52.3732C300.311 64.212 288.781 76.9348 276.447 72.4917Z" fill="url(#paint4_diamond_599_5636)"/>
<path d="M-110.335 -67.2506L-111.435 -66.5614L-110.214 -66.1215L276.233 73.0857C289.098 77.7199 301.124 64.45 295.25 52.102L158.679 -234.982L158.375 -235.622L157.774 -235.246L-110.335 -67.2506Z" stroke="url(#paint5_radial_599_5636)" stroke-opacity="0.7" stroke-width="1.26285"/>
<path opacity="0.6" d="M276.447 72.4917L-110 -66.7156L158.11 -234.711L294.68 52.3732C300.312 64.212 288.782 76.9348 276.447 72.4917Z" fill="url(#paint6_diamond_599_5636)"/>
<path d="M728.68 235.878L342.233 96.6704C329.899 92.2273 318.369 104.95 324 116.789L460.571 403.873" stroke="url(#paint7_linear_599_5636)" stroke-opacity="0.5" stroke-width="1.89428"/>
<path d="M728.68 235.877L342.233 96.6702C329.898 92.2271 318.368 104.95 324 116.789L460.57 403.873" stroke="url(#paint8_linear_599_5636)" stroke-opacity="0.25" stroke-width="0.94714"/>
<path d="M342.569 96.0641L729.016 235.271L460.906 403.267L324.336 116.183C318.704 104.344 330.234 91.621 342.569 96.0641Z" fill="url(#paint9_diamond_599_5636)"/>
<path opacity="0.6" d="M342.568 96.0641L729.015 235.271L460.906 403.267L324.336 116.183C318.704 104.344 330.234 91.621 342.568 96.0641Z" fill="url(#paint10_diamond_599_5636)"/>
<path opacity="0.3" d="M460.245 -336.17L320.963 50.4851C316.53 62.7902 329.188 74.3118 341.023 68.7451L630.304 -67.3173" stroke="url(#paint11_linear_599_5636)" stroke-width="0.94714"/>
<path opacity="0.2" d="M460.245 -336.17L320.963 50.485C316.531 62.7901 329.188 74.3116 341.023 68.7449L630.304 -67.3174" stroke="url(#paint12_linear_599_5636)" stroke-width="0.94714"/>
<path opacity="0.6" d="M157.657 503.83L296.94 117.175C301.372 104.87 288.715 93.3483 276.879 98.915L-10.6161 234.138" stroke="url(#paint13_linear_599_5636)" stroke-width="0.94714"/>
<path d="M-109.664 -66.0588L276.783 73.1484C289.117 77.5915 300.647 64.8688 295.016 53.0299L158.445 -234.054" stroke="url(#paint14_linear_599_5636)" stroke-opacity="0.5" stroke-width="0.94714"/>
<path d="M276.447 72.4917L-110 -66.7156L158.109 -234.711L294.68 52.3732C300.311 64.212 288.781 76.9348 276.447 72.4917Z" fill="url(#paint15_diamond_599_5636)"/>
<path d="M-110.335 -67.2506L-111.435 -66.5614L-110.214 -66.1215L276.233 73.0857C289.098 77.7199 301.124 64.45 295.25 52.102L158.679 -234.982L158.375 -235.622L157.774 -235.246L-110.335 -67.2506Z" stroke="url(#paint16_radial_599_5636)" stroke-opacity="0.7" stroke-width="1.26285"/>
<path opacity="0.6" d="M276.447 72.4917L-110 -66.7156L158.11 -234.711L294.68 52.3732C300.312 64.212 288.782 76.9348 276.447 72.4917Z" fill="url(#paint17_diamond_599_5636)"/>
<path d="M728.68 235.878L342.233 96.6704C329.899 92.2273 318.369 104.95 324 116.789L460.571 403.873" stroke="url(#paint18_linear_599_5636)" stroke-opacity="0.5" stroke-width="1.89428"/>
<path d="M728.68 235.877L342.233 96.6702C329.898 92.2271 318.368 104.95 324 116.789L460.57 403.873" stroke="url(#paint19_linear_599_5636)" stroke-opacity="0.25" stroke-width="0.94714"/>
<path d="M342.569 96.0641L729.016 235.271L460.906 403.267L324.336 116.183C318.704 104.344 330.234 91.621 342.569 96.0641Z" fill="url(#paint20_diamond_599_5636)"/>
<path opacity="0.6" d="M342.568 96.0641L729.015 235.271L460.906 403.267L324.336 116.183C318.704 104.344 330.234 91.621 342.568 96.0641Z" fill="url(#paint21_diamond_599_5636)"/>
</g>
<defs>
<linearGradient id="paint0_linear_599_5636" x1="493.361" y1="-57.6285" x2="427.076" y2="126.381" gradientUnits="userSpaceOnUse">
<stop stop-color="#FF5C01" stop-opacity="0"/>
<stop offset="1" stop-color="#F6F6F6"/>
</linearGradient>
<linearGradient id="paint1_linear_599_5636" x1="493.361" y1="-57.6287" x2="427.076" y2="126.381" gradientUnits="userSpaceOnUse">
<stop stop-color="#FE641F" stop-opacity="0"/>
<stop offset="1" stop-color="#F6F6F6"/>
</linearGradient>
<linearGradient id="paint2_linear_599_5636" x1="86.0584" y1="279.404" x2="191.483" y2="41.5151" gradientUnits="userSpaceOnUse">
<stop stop-color="#FE641F" stop-opacity="0"/>
<stop offset="0.721712" stop-color="#EB9168"/>
<stop offset="1" stop-color="#F6F6F6" stop-opacity="0.51"/>
</linearGradient>
<linearGradient id="paint3_linear_599_5636" x1="57.0198" y1="-0.506381" x2="325.218" y2="0.914331" gradientUnits="userSpaceOnUse">
<stop stop-color="#FE641F"/>
<stop offset="1" stop-color="#FE641F"/>
</linearGradient>
<radialGradient id="paint4_diamond_599_5636" cx="0" cy="0" r="1" gradientUnits="userSpaceOnUse" gradientTransform="translate(296.962 58.2163) rotate(-114.714) scale(228.825 127.59)">
<stop stop-color="#FF5C01"/>
<stop offset="1" stop-color="#FF5C01" stop-opacity="0"/>
</radialGradient>
<radialGradient id="paint5_radial_599_5636" cx="0" cy="0" r="1" gradientUnits="userSpaceOnUse" gradientTransform="translate(138.151 20.5192) rotate(13.1858) scale(170.238 94.9223)">
<stop stop-color="#F6F6F6" stop-opacity="0"/>
<stop offset="1" stop-color="#F6F6F6" stop-opacity="0.6"/>
</radialGradient>
<radialGradient id="paint6_diamond_599_5636" cx="0" cy="0" r="1" gradientUnits="userSpaceOnUse" gradientTransform="translate(296.962 58.2163) rotate(-114.714) scale(228.825 127.59)">
<stop stop-color="#FF5C01"/>
<stop offset="1" stop-color="#FF5C01" stop-opacity="0"/>
</radialGradient>
<linearGradient id="paint7_linear_599_5636" x1="427.187" y1="143.174" x2="329.315" y2="102.131" gradientUnits="userSpaceOnUse">
<stop stop-color="#F6F6F6" stop-opacity="0"/>
<stop offset="1" stop-color="#F6F6F6"/>
</linearGradient>
<linearGradient id="paint8_linear_599_5636" x1="561.996" y1="170.325" x2="293.797" y2="168.904" gradientUnits="userSpaceOnUse">
<stop stop-color="#F6F6F6" stop-opacity="0"/>
<stop offset="1" stop-color="#F6F6F6"/>
</linearGradient>
<radialGradient id="paint9_diamond_599_5636" cx="0" cy="0" r="1" gradientUnits="userSpaceOnUse" gradientTransform="translate(322.054 110.339) rotate(65.2862) scale(228.825 127.59)">
<stop stop-color="#FF5C01"/>
<stop offset="1" stop-color="#FF5C01" stop-opacity="0"/>
</radialGradient>
<radialGradient id="paint10_diamond_599_5636" cx="0" cy="0" r="1" gradientUnits="userSpaceOnUse" gradientTransform="translate(322.053 110.339) rotate(65.2862) scale(228.825 127.59)">
<stop stop-color="#FF5C01"/>
<stop offset="1" stop-color="#FF5C01" stop-opacity="0"/>
</radialGradient>
<linearGradient id="paint11_linear_599_5636" x1="493.361" y1="-57.6285" x2="427.076" y2="126.381" gradientUnits="userSpaceOnUse">
<stop stop-color="#FF5C01" stop-opacity="0"/>
<stop offset="1" stop-color="#F6F6F6"/>
</linearGradient>
<linearGradient id="paint12_linear_599_5636" x1="493.361" y1="-57.6287" x2="427.076" y2="126.381" gradientUnits="userSpaceOnUse">
<stop stop-color="#FE641F" stop-opacity="0"/>
<stop offset="1" stop-color="#F6F6F6"/>
</linearGradient>
<linearGradient id="paint13_linear_599_5636" x1="86.0584" y1="279.404" x2="191.483" y2="41.5151" gradientUnits="userSpaceOnUse">
<stop stop-color="#FE641F" stop-opacity="0"/>
<stop offset="0.721712" stop-color="#EB9168"/>
<stop offset="1" stop-color="#F6F6F6" stop-opacity="0.51"/>
</linearGradient>
<linearGradient id="paint14_linear_599_5636" x1="57.0198" y1="-0.506381" x2="325.218" y2="0.914331" gradientUnits="userSpaceOnUse">
<stop stop-color="#FE641F"/>
<stop offset="1" stop-color="#FE641F"/>
</linearGradient>
<radialGradient id="paint15_diamond_599_5636" cx="0" cy="0" r="1" gradientUnits="userSpaceOnUse" gradientTransform="translate(296.962 58.2163) rotate(-114.714) scale(228.825 127.59)">
<stop stop-color="#FF5C01"/>
<stop offset="1" stop-color="#FF5C01" stop-opacity="0"/>
</radialGradient>
<radialGradient id="paint16_radial_599_5636" cx="0" cy="0" r="1" gradientUnits="userSpaceOnUse" gradientTransform="translate(138.151 20.5192) rotate(13.1858) scale(170.238 94.9223)">
<stop stop-color="#F6F6F6" stop-opacity="0"/>
<stop offset="1" stop-color="#F6F6F6" stop-opacity="0.6"/>
</radialGradient>
<radialGradient id="paint17_diamond_599_5636" cx="0" cy="0" r="1" gradientUnits="userSpaceOnUse" gradientTransform="translate(296.962 58.2163) rotate(-114.714) scale(228.825 127.59)">
<stop stop-color="#FF5C01"/>
<stop offset="1" stop-color="#FF5C01" stop-opacity="0"/>
</radialGradient>
<linearGradient id="paint18_linear_599_5636" x1="427.187" y1="143.174" x2="329.315" y2="102.131" gradientUnits="userSpaceOnUse">
<stop stop-color="#F6F6F6" stop-opacity="0"/>
<stop offset="1" stop-color="#F6F6F6"/>
</linearGradient>
<linearGradient id="paint19_linear_599_5636" x1="561.996" y1="170.325" x2="293.797" y2="168.904" gradientUnits="userSpaceOnUse">
<stop stop-color="#F6F6F6" stop-opacity="0"/>
<stop offset="1" stop-color="#F6F6F6"/>
</linearGradient>
<radialGradient id="paint20_diamond_599_5636" cx="0" cy="0" r="1" gradientUnits="userSpaceOnUse" gradientTransform="translate(322.054 110.339) rotate(65.2862) scale(228.825 127.59)">
<stop stop-color="#FF5C01"/>
<stop offset="1" stop-color="#FF5C01" stop-opacity="0"/>
</radialGradient>
<radialGradient id="paint21_diamond_599_5636" cx="0" cy="0" r="1" gradientUnits="userSpaceOnUse" gradientTransform="translate(322.053 110.339) rotate(65.2862) scale(228.825 127.59)">
<stop stop-color="#FF5C01"/>
<stop offset="1" stop-color="#FF5C01" stop-opacity="0"/>
</radialGradient>
<clipPath id="clip0_599_5636">
<rect width="480" height="168" rx="16.9412" fill="white"/>
</clipPath>
</defs>
</svg>
