<svg width="19" height="18" viewBox="0 0 19 18" fill="none" xmlns="http://www.w3.org/2000/svg">
<g id="social/tweet" clip-path="url(#clip0_259_21186)">
<path id="Vector" fill-rule="evenodd" clip-rule="evenodd" d="M15.4798 3.21381C14.7205 2.45372 13.8187 1.85088 12.8261 1.4398C11.8335 1.02872 10.7696 0.817479 9.69524 0.818178C8.62129 0.817758 7.5578 1.02913 6.56563 1.44021C5.57347 1.85128 4.67211 2.45398 3.91315 3.21381C3.15188 3.97315 2.54819 4.87546 2.13678 5.86887C1.72537 6.86229 1.51436 7.92722 1.51588 9.00245C1.51472 10.0768 1.72584 11.1408 2.13709 12.1334C2.54835 13.1259 3.15165 14.0275 3.91233 14.7862C4.67149 15.5462 5.57311 16.149 6.56557 16.5601C7.55803 16.9712 8.62183 17.1824 9.69606 17.1818C10.7703 17.1824 11.8341 16.9711 12.8265 16.56C13.819 16.149 14.7206 15.5462 15.4798 14.7862C16.2404 14.0273 16.8436 13.1256 17.2547 12.1329C17.6658 11.1402 17.8767 10.0761 17.8754 9.00163C17.877 7.92666 17.6662 6.86196 17.2551 5.86871C16.8439 4.87546 16.2406 3.97322 15.4798 3.21381ZM15.0265 14.3329C14.3274 15.0345 13.4964 15.5909 12.5815 15.9703C11.6666 16.3497 10.6857 16.5446 9.69524 16.5436C8.70491 16.5445 7.72418 16.3496 6.80941 15.9702C5.89464 15.5908 5.06385 15.0344 4.36479 14.3329C3.66303 13.6341 3.10647 12.8033 2.72719 11.8885C2.34792 10.9737 2.15341 9.9928 2.15488 9.00245C2.15279 8.01135 2.34691 7.02964 2.72606 6.11393C3.10521 5.19822 3.66188 4.36662 4.36397 3.66709C5.06349 2.96612 5.8947 2.41038 6.80979 2.03182C7.72487 1.65326 8.70577 1.45936 9.69606 1.46127C10.6861 1.45953 11.6667 1.65352 12.5815 2.03207C13.4963 2.41063 14.3272 2.96628 15.0265 3.66709C15.7287 4.36643 16.2855 5.19786 16.6648 6.11343C17.0441 7.02901 17.2383 8.01061 17.2364 9.00163C17.2364 11.0815 16.3937 12.9698 15.0265 14.3329Z" fill="#718096" stroke="#718096" stroke-width="0.818182"/>
<path id="Vector_2" fill-rule="evenodd" clip-rule="evenodd" d="M13.6454 6.12278C13.3148 6.31751 12.9434 6.45823 12.5539 6.53514C12.3927 6.36451 12.1981 6.22892 11.9821 6.13686C11.7662 6.0448 11.5336 5.99822 11.2988 6.00005C10.3571 6.00005 9.58638 6.75687 9.58638 7.68551C9.58638 7.82132 9.60929 7.94732 9.63629 8.07005C8.957 8.03968 8.29162 7.86722 7.68309 7.56381C7.07457 7.26039 6.53642 6.83276 6.10338 6.30851C5.95856 6.56214 5.86857 6.84769 5.86857 7.15532C5.86857 7.74442 6.20484 8.25987 6.65811 8.55932C6.37747 8.55523 6.08293 8.47751 5.91275 8.35069V8.3736C5.91275 8.59123 5.9242 8.79087 6.00111 8.98069C6.10433 9.24502 6.27256 9.47903 6.49023 9.66109C6.7079 9.84315 6.96797 9.96736 7.24638 10.0222C7.0964 10.0641 6.94146 10.0856 6.78575 10.0861C6.67648 10.0852 6.56762 10.0728 6.46093 10.0492C6.57351 10.3861 6.78731 10.68 7.07314 10.8909C7.35897 11.1018 7.70292 11.2193 8.05802 11.2274C7.46893 11.6799 6.7342 11.9474 5.93238 11.9474C5.79247 11.9474 5.66075 11.9384 5.52002 11.9245C6.28093 12.3999 7.18175 12.6813 8.14638 12.6813C10.8235 12.6813 12.4688 10.8281 12.8984 8.90378C12.9761 8.56014 13.0039 8.21978 13.0039 7.88432V7.66751C13.3408 7.43027 13.6319 7.13393 13.863 6.79287C13.551 6.92748 13.2216 7.01755 12.8845 7.06042C13.242 6.84769 13.5177 6.52123 13.6454 6.12278Z" fill="#718096"/>
</g>
<defs>
<clipPath id="clip0_259_21186">
<rect width="18" height="18" fill="white" transform="translate(0.697754)"/>
</clipPath>
</defs>
</svg>
