<svg width="18" height="18" viewBox="0 0 18 18" fill="none" xmlns="http://www.w3.org/2000/svg">
<g id="social/tweet" clip-path="url(#clip0_271_1021)">
<path id="Vector" fill-rule="evenodd" clip-rule="evenodd" d="M14.7821 3.21381C14.0228 2.45372 13.1211 1.85088 12.1284 1.4398C11.1358 1.02872 10.0719 0.817479 8.99755 0.818178C7.9236 0.817758 6.86011 1.02913 5.86794 1.44021C4.87578 1.85128 3.97442 2.45398 3.21546 3.21381C2.45418 3.97315 1.85049 4.87546 1.43909 5.86887C1.02768 6.86229 0.81667 7.92722 0.818184 9.00245C0.81703 10.0768 1.02814 11.1408 1.4394 12.1334C1.85066 13.1259 2.45395 14.0275 3.21464 14.7862C3.9738 15.5462 4.87542 16.149 5.86788 16.5601C6.86034 16.9712 7.92414 17.1824 8.99837 17.1818C10.0726 17.1824 11.1364 16.9711 12.1288 16.56C13.1213 16.149 14.0229 15.5462 14.7821 14.7862C15.5427 14.0273 16.1459 13.1256 16.557 12.1329C16.9681 11.1402 17.1791 10.0761 17.1777 9.00163C17.1793 7.92666 16.9685 6.86196 16.5574 5.86871C16.1462 4.87546 15.5429 3.97322 14.7821 3.21381ZM14.3288 14.3329C13.6297 15.0345 12.7987 15.5909 11.8838 15.9703C10.9689 16.3497 9.98801 16.5446 8.99755 16.5436C8.00722 16.5445 7.02649 16.3496 6.11172 15.9702C5.19694 15.5908 4.36615 15.0344 3.66709 14.3329C2.96533 13.6341 2.40878 12.8033 2.0295 11.8885C1.65022 10.9737 1.45572 9.9928 1.45718 9.00245C1.45509 8.01135 1.64922 7.02964 2.02837 6.11393C2.40752 5.19822 2.96418 4.36662 3.66628 3.66709C4.3658 2.96612 5.19701 2.41038 6.11209 2.03182C7.02718 1.65326 8.00807 1.45936 8.99837 1.46127C9.98839 1.45953 10.969 1.65352 11.8838 2.03207C12.7986 2.41063 13.6295 2.96628 14.3288 3.66709C15.031 4.36643 15.5878 5.19786 15.9671 6.11343C16.3464 7.02901 16.5407 8.01061 16.5387 9.00163C16.5387 11.0815 15.696 12.9698 14.3288 14.3329Z" fill="#4A5568" stroke="#4A5568" stroke-width="0.818182"/>
<path id="Vector_2" fill-rule="evenodd" clip-rule="evenodd" d="M12.9478 6.12278C12.6172 6.31751 12.2458 6.45823 11.8563 6.53514C11.6951 6.36451 11.5004 6.22892 11.2845 6.13686C11.0685 6.0448 10.8359 5.99822 10.6012 6.00005C9.65948 6.00005 8.88875 6.75687 8.88875 7.68551C8.88875 7.82132 8.91166 7.94732 8.93866 8.07005C8.25937 8.03968 7.59399 7.86722 6.98546 7.56381C6.37694 7.26039 5.83879 6.83276 5.40575 6.30851C5.26093 6.56214 5.17093 6.84769 5.17093 7.15532C5.17093 7.74442 5.50721 8.25987 5.96048 8.55932C5.67984 8.55523 5.3853 8.47751 5.21511 8.35069V8.3736C5.21511 8.59123 5.22657 8.79087 5.30348 8.98069C5.4067 9.24502 5.57493 9.47903 5.7926 9.66109C6.01027 9.84315 6.27034 9.96736 6.54875 10.0222C6.39877 10.0641 6.24383 10.0856 6.08811 10.0861C5.97885 10.0852 5.86998 10.0728 5.7633 10.0492C5.87588 10.3861 6.08967 10.68 6.37551 10.8909C6.66134 11.1018 7.00529 11.2193 7.36039 11.2274C6.7713 11.6799 6.03657 11.9474 5.23475 11.9474C5.09484 11.9474 4.96311 11.9384 4.82239 11.9245C5.5833 12.3999 6.48412 12.6813 7.44875 12.6813C10.1258 12.6813 11.7712 10.8281 12.2008 8.90378C12.2785 8.56014 12.3063 8.21978 12.3063 7.88432V7.66751C12.6432 7.43027 12.9342 7.13393 13.1654 6.79287C12.8534 6.92748 12.524 7.01755 12.1868 7.06042C12.5444 6.84769 12.8201 6.52123 12.9478 6.12278Z" fill="#4A5568"/>
</g>
<defs>
<clipPath id="clip0_271_1021">
<rect width="18" height="18" fill="white"/>
</clipPath>
</defs>
</svg>
